<svg width="28" height="27" viewBox="0 0 28 27" fill="none" xmlns="http://www.w3.org/2000/svg">
<path d="M27.0527 18.2196C25.8928 19.3092 24.9727 20.1761 24.2099 20.8905C22.3695 19.1736 20.3451 17.5827 18.7106 15.6624C17.2383 13.9335 17.3183 11.7638 18.5411 9.84113C19.2095 8.7902 20.1926 7.94266 21.1031 6.92563C22.1637 7.92087 23.1129 8.80957 24.1251 9.7588C23.8612 10.047 23.6311 10.3061 23.3938 10.5579C22.062 11.9624 22.0329 13.3935 23.4084 14.7859C24.5295 15.924 25.733 16.9822 27.0527 18.2196Z" fill="white"/>
<path d="M8.68561 2.94465C9.55493 3.51855 10.2136 4.16025 10.9981 4.42177C11.9474 4.73899 12.9402 4.52106 13.6909 3.70985C14.8217 2.48699 15.9647 1.27381 17.1536 9.15527e-05C18.2603 1.04376 19.1708 1.90098 20.1055 2.78241C18.3281 4.57433 16.7032 6.39289 14.8895 7.99351C13.0685 9.59897 10.1579 9.43431 8.2691 7.85306C5.94445 5.90859 5.94687 5.911 7.99305 3.71469C8.24005 3.45075 8.47493 3.17954 8.68561 2.94465Z" fill="white"/>
<path d="M17.9139 24.0457C17.0446 23.4718 16.3859 22.8301 15.6014 22.5686C14.6521 22.2514 13.6593 22.4693 12.9086 23.2805C11.7778 24.5034 10.6349 25.7165 9.44589 26.9903C8.33926 25.9466 7.42877 25.0894 6.49406 24.2079C8.27145 22.416 9.89629 20.5975 11.71 18.9968C13.531 17.3914 16.4416 17.556 18.3304 19.1373C20.6551 21.0818 20.6526 21.0793 18.6065 23.2757C18.3595 23.5372 18.1246 23.8108 17.9139 24.0457Z" fill="white"/>
<path d="M2.37752 18.1928C4.69249 15.2434 4.66827 14.8051 2.10873 12.1681C1.4525 11.4925 0.742999 10.8629 0.140042 10.1437C-0.0294636 9.94029 -0.0512565 9.3785 0.108563 9.17993C0.742999 8.39294 1.4743 7.68344 2.116 7.00057C3.97814 8.79007 5.96378 10.4028 7.57408 12.3279C9.1408 14.2021 8.81632 16.89 7.19875 18.7376C6.60306 19.4181 5.96378 20.0598 5.24701 20.8226C4.2663 19.9218 3.34613 19.0791 2.37752 18.1928Z" fill="white"/>
<path d="M15.8411 16.5415C13.7659 15.3913 11.9158 15.2532 9.83092 16.5754C10.9472 14.459 11.0611 12.5726 9.69048 10.4611C11.7972 11.6573 13.6957 11.8123 15.9017 10.4126C14.5892 12.5508 14.5795 14.4493 15.8411 16.5415Z" fill="#01AEE0"/>
</svg>
