<svg width="171" height="57" viewBox="0 0 171 57" fill="none" xmlns="http://www.w3.org/2000/svg">
<g filter="url(#filter0_ii_21_169)">
<rect x="0.5" y="1" width="170" height="55" rx="27.5" stroke="#171D45"/>
<rect x="0.5" y="1" width="170" height="55" rx="27.5" stroke="url(#paint0_radial_21_169)"/>
<path d="M39.056 33.5L38.16 31.068H32.56L31.664 33.5H30.16L34.368 22.188H36.368L40.56 33.5H39.056ZM35.36 23.404L33.024 29.804H37.696L35.36 23.404ZM41.7908 36.54V25.068H43.0868L43.1508 26.332C43.4388 25.8947 43.8281 25.564 44.3188 25.34C44.8201 25.1053 45.3588 24.9827 45.9348 24.972C46.5854 24.972 47.1348 25.084 47.5828 25.308C48.0414 25.5213 48.4201 25.8253 48.7188 26.22C49.0281 26.604 49.2574 27.0627 49.4068 27.596C49.5561 28.1187 49.6308 28.684 49.6308 29.292C49.6308 29.9107 49.5561 30.4813 49.4068 31.004C49.2574 31.5267 49.0281 31.98 48.7188 32.364C48.4094 32.748 48.0201 33.052 47.5508 33.276C47.0814 33.4893 46.5214 33.596 45.8708 33.596C45.2308 33.596 44.6868 33.4947 44.2388 33.292C43.7908 33.0893 43.4281 32.8067 43.1508 32.444V36.54H41.7908ZM45.7588 32.396C46.2174 32.396 46.6014 32.316 46.9108 32.156C47.2308 31.9853 47.4868 31.7613 47.6788 31.484C47.8814 31.196 48.0254 30.8653 48.1108 30.492C48.2068 30.1187 48.2601 29.7187 48.2708 29.292C48.2708 28.8653 48.2228 28.4653 48.1268 28.092C48.0414 27.708 47.8974 27.3773 47.6948 27.1C47.4921 26.8227 47.2254 26.604 46.8948 26.444C46.5748 26.2733 46.1854 26.188 45.7268 26.188C45.1828 26.188 44.7134 26.3373 44.3188 26.636C43.9241 26.924 43.6254 27.292 43.4228 27.74C43.3054 27.9853 43.2254 28.2413 43.1828 28.508C43.1401 28.764 43.1188 29.0307 43.1188 29.308C43.1188 29.628 43.1401 29.9267 43.1828 30.204C43.2254 30.4707 43.3054 30.7267 43.4228 30.972C43.6254 31.3773 43.9188 31.7187 44.3028 31.996C44.6974 32.2627 45.1828 32.396 45.7588 32.396ZM51.447 36.54V25.068H52.743L52.807 26.332C53.095 25.8947 53.4843 25.564 53.975 25.34C54.4763 25.1053 55.015 24.9827 55.591 24.972C56.2417 24.972 56.791 25.084 57.239 25.308C57.6977 25.5213 58.0763 25.8253 58.375 26.22C58.6843 26.604 58.9137 27.0627 59.063 27.596C59.2123 28.1187 59.287 28.684 59.287 29.292C59.287 29.9107 59.2123 30.4813 59.063 31.004C58.9137 31.5267 58.6843 31.98 58.375 32.364C58.0657 32.748 57.6763 33.052 57.207 33.276C56.7377 33.4893 56.1777 33.596 55.527 33.596C54.887 33.596 54.343 33.4947 53.895 33.292C53.447 33.0893 53.0843 32.8067 52.807 32.444V36.54H51.447ZM55.415 32.396C55.8737 32.396 56.2577 32.316 56.567 32.156C56.887 31.9853 57.143 31.7613 57.335 31.484C57.5377 31.196 57.6817 30.8653 57.767 30.492C57.863 30.1187 57.9163 29.7187 57.927 29.292C57.927 28.8653 57.879 28.4653 57.783 28.092C57.6977 27.708 57.5537 27.3773 57.351 27.1C57.1483 26.8227 56.8817 26.604 56.551 26.444C56.231 26.2733 55.8417 26.188 55.383 26.188C54.839 26.188 54.3697 26.3373 53.975 26.636C53.5803 26.924 53.2817 27.292 53.079 27.74C52.9617 27.9853 52.8817 28.2413 52.839 28.508C52.7963 28.764 52.775 29.0307 52.775 29.308C52.775 29.628 52.7963 29.9267 52.839 30.204C52.8817 30.4707 52.9617 30.7267 53.079 30.972C53.2817 31.3773 53.575 31.7187 53.959 31.996C54.3537 32.2627 54.839 32.396 55.415 32.396ZM61.1033 33.5V22.188H62.4633V33.5H61.1033ZM72.0113 25.068V33.5C72.0113 34.7267 71.6913 35.66 71.0513 36.3C70.4113 36.9507 69.4993 37.276 68.3153 37.276C67.6006 37.2653 66.9553 37.1693 66.3793 36.988C65.8139 36.8173 65.2913 36.508 64.8113 36.06L65.4033 34.988C65.8193 35.3187 66.2619 35.58 66.7313 35.772C67.2113 35.964 67.7126 36.06 68.2352 36.06C68.6726 36.06 69.0459 35.9907 69.3553 35.852C69.6646 35.724 69.9153 35.5373 70.1073 35.292C70.3099 35.0573 70.4539 34.7747 70.5393 34.444C70.6353 34.1133 70.6833 33.756 70.6833 33.372V32.364C70.5446 32.5773 70.3686 32.7693 70.1553 32.94C69.9526 33.1 69.7286 33.2333 69.4833 33.34C69.2486 33.436 68.9926 33.5053 68.7153 33.548C68.4486 33.6013 68.1766 33.628 67.8993 33.628C67.2593 33.6173 66.7259 33.516 66.2993 33.324C65.8833 33.132 65.5473 32.8653 65.2913 32.524C65.0459 32.1827 64.8699 31.7773 64.7633 31.308C64.6566 30.828 64.6033 30.3 64.6033 29.724V25.068H65.9633V29.34C65.9633 29.724 65.9846 30.1027 66.0273 30.476C66.0806 30.8493 66.1819 31.18 66.3313 31.468C66.4806 31.756 66.6993 31.9907 66.9873 32.172C67.2753 32.3427 67.6593 32.428 68.1393 32.428C68.6193 32.428 69.0246 32.3267 69.3553 32.124C69.6966 31.9213 69.9579 31.6653 70.1393 31.356C70.3419 31.036 70.4753 30.684 70.5393 30.3C70.6139 29.916 70.6513 29.5213 70.6513 29.116V25.068H72.0113ZM79.2786 33.5V26.268H77.9026V25.068H79.2786V24.172C79.2786 23.2333 79.4813 22.5453 79.8866 22.108C80.292 21.6707 80.9746 21.452 81.9346 21.452H82.8946V22.652H82.0786C81.5026 22.652 81.1186 22.796 80.9266 23.084C80.7346 23.372 80.6386 23.788 80.6386 24.332V25.068H82.8946V26.268H80.6386V33.5H79.2786ZM87.8778 24.972C88.5498 24.972 89.1311 25.0787 89.6218 25.292C90.1124 25.5053 90.5231 25.804 90.8538 26.188C91.1951 26.572 91.4458 27.0307 91.6058 27.564C91.7764 28.0867 91.8618 28.6627 91.8618 29.292C91.8618 29.9213 91.7764 30.5027 91.6058 31.036C91.4458 31.5587 91.1951 32.012 90.8538 32.396C90.5231 32.7693 90.1071 33.0627 89.6058 33.276C89.1044 33.4893 88.5178 33.596 87.8458 33.596C87.1738 33.596 86.5871 33.4893 86.0858 33.276C85.5951 33.0627 85.1791 32.7693 84.8378 32.396C84.5071 32.012 84.2564 31.5587 84.0858 31.036C83.9258 30.5027 83.8458 29.9213 83.8458 29.292C83.8458 28.6627 83.9258 28.0867 84.0858 27.564C84.2564 27.0307 84.5071 26.572 84.8378 26.188C85.1791 25.804 85.6058 25.5053 86.1178 25.292C86.6298 25.0787 87.2164 24.972 87.8778 24.972ZM87.8458 32.396C88.3044 32.396 88.6991 32.316 89.0298 32.156C89.3711 31.996 89.6484 31.7773 89.8618 31.5C90.0858 31.212 90.2458 30.8813 90.3418 30.508C90.4484 30.1347 90.5018 29.7293 90.5018 29.292C90.5018 28.8653 90.4484 28.4653 90.3418 28.092C90.2458 27.708 90.0858 27.3773 89.8618 27.1C89.6484 26.812 89.3711 26.588 89.0298 26.428C88.6991 26.268 88.3044 26.188 87.8458 26.188C87.3871 26.188 86.9924 26.268 86.6618 26.428C86.3311 26.588 86.0538 26.812 85.8298 27.1C85.6164 27.3773 85.4564 27.708 85.3498 28.092C85.2538 28.4653 85.2057 28.8653 85.2057 29.292C85.2057 29.7293 85.2538 30.1347 85.3498 30.508C85.4564 30.8813 85.6164 31.212 85.8298 31.5C86.0538 31.7773 86.3311 31.996 86.6618 32.156C86.9924 32.316 87.3871 32.396 87.8458 32.396ZM93.6814 33.5V25.068H94.9934L95.0574 26.38C95.3667 25.8893 95.7614 25.532 96.2414 25.308C96.7214 25.084 97.2654 24.972 97.8734 24.972H98.3054V26.252H97.8094C97.308 26.252 96.8814 26.3373 96.5294 26.508C96.1774 26.668 95.8894 26.892 95.6654 27.18C95.452 27.4573 95.292 27.788 95.1854 28.172C95.0894 28.556 95.0414 28.9613 95.0414 29.388V33.5H93.6814ZM103.083 25.068H104.619L106.635 32.188L108.715 25.068H110.555L112.651 32.188L114.635 25.068H116.187L113.563 33.5H111.707L109.627 26.668L107.547 33.5H105.707L103.083 25.068ZM121.159 24.972C121.831 24.972 122.412 25.0787 122.903 25.292C123.394 25.5053 123.804 25.804 124.135 26.188C124.476 26.572 124.727 27.0307 124.887 27.564C125.058 28.0867 125.143 28.6627 125.143 29.292C125.143 29.9213 125.058 30.5027 124.887 31.036C124.727 31.5587 124.476 32.012 124.135 32.396C123.804 32.7693 123.388 33.0627 122.887 33.276C122.386 33.4893 121.799 33.596 121.127 33.596C120.455 33.596 119.868 33.4893 119.367 33.276C118.876 33.0627 118.46 32.7693 118.119 32.396C117.788 32.012 117.538 31.5587 117.367 31.036C117.207 30.5027 117.127 29.9213 117.127 29.292C117.127 28.6627 117.207 28.0867 117.367 27.564C117.538 27.0307 117.788 26.572 118.119 26.188C118.46 25.804 118.887 25.5053 119.399 25.292C119.911 25.0787 120.498 24.972 121.159 24.972ZM121.127 32.396C121.586 32.396 121.98 32.316 122.311 32.156C122.652 31.996 122.93 31.7773 123.143 31.5C123.367 31.212 123.527 30.8813 123.623 30.508C123.73 30.1347 123.783 29.7293 123.783 29.292C123.783 28.8653 123.73 28.4653 123.623 28.092C123.527 27.708 123.367 27.3773 123.143 27.1C122.93 26.812 122.652 26.588 122.311 26.428C121.98 26.268 121.586 26.188 121.127 26.188C120.668 26.188 120.274 26.268 119.943 26.428C119.612 26.588 119.335 26.812 119.111 27.1C118.898 27.3773 118.738 27.708 118.631 28.092C118.535 28.4653 118.487 28.8653 118.487 29.292C118.487 29.7293 118.535 30.1347 118.631 30.508C118.738 30.8813 118.898 31.212 119.111 31.5C119.335 31.7773 119.612 31.996 119.943 32.156C120.274 32.316 120.668 32.396 121.127 32.396ZM126.963 33.5V25.068H128.275L128.339 26.38C128.648 25.8893 129.043 25.532 129.523 25.308C130.003 25.084 130.547 24.972 131.155 24.972H131.587V26.252H131.091C130.589 26.252 130.163 26.3373 129.811 26.508C129.459 26.668 129.171 26.892 128.947 27.18C128.733 27.4573 128.573 27.788 128.467 28.172C128.371 28.556 128.323 28.9613 128.323 29.388V33.5H126.963ZM132.931 33.5V22.188H134.291V28.7H135.763L138.291 25.068H139.827L137.011 29.084L140.067 33.5H138.467L135.923 29.884H134.291V33.5H132.931Z" fill="white"/>
</g>
<defs>
<filter id="filter0_ii_21_169" x="0" y="-0.5" width="171" height="58" filterUnits="userSpaceOnUse" color-interpolation-filters="sRGB">
<feFlood flood-opacity="0" result="BackgroundImageFix"/>
<feBlend mode="normal" in="SourceGraphic" in2="BackgroundImageFix" result="shape"/>
<feColorMatrix in="SourceAlpha" type="matrix" values="0 0 0 0 0 0 0 0 0 0 0 0 0 0 0 0 0 0 127 0" result="hardAlpha"/>
<feOffset dy="1"/>
<feGaussianBlur stdDeviation="2.5"/>
<feComposite in2="hardAlpha" operator="arithmetic" k2="-1" k3="1"/>
<feColorMatrix type="matrix" values="0 0 0 0 1 0 0 0 0 1 0 0 0 0 1 0 0 0 0.3 0"/>
<feBlend mode="normal" in2="shape" result="effect1_innerShadow_21_169"/>
<feColorMatrix in="SourceAlpha" type="matrix" values="0 0 0 0 0 0 0 0 0 0 0 0 0 0 0 0 0 0 127 0" result="hardAlpha"/>
<feOffset dy="-1"/>
<feGaussianBlur stdDeviation="0.5"/>
<feComposite in2="hardAlpha" operator="arithmetic" k2="-1" k3="1"/>
<feColorMatrix type="matrix" values="0 0 0 0 0 0 0 0 0 0 0 0 0 0 0 0 0 0 0.3 0"/>
<feBlend mode="normal" in2="effect1_innerShadow_21_169" result="effect2_innerShadow_21_169"/>
</filter>
<radialGradient id="paint0_radial_21_169" cx="0" cy="0" r="1" gradientUnits="userSpaceOnUse" gradientTransform="translate(26.6311 0.5) rotate(21.1387) scale(155.285 116.584)">
<stop stop-color="#7595FF"/>
<stop offset="0.199872" stop-color="#7595FF" stop-opacity="0"/>
</radialGradient>
</defs>
</svg>
