<svg width="728" height="220" viewBox="0 0 728 220" fill="none" xmlns="http://www.w3.org/2000/svg">
<ellipse cx="1.20208" cy="217.596" rx="1.20208" ry="1.20219" fill="#22222A"/>
<ellipse cx="13.2224" cy="205.574" rx="1.20208" ry="1.20219" fill="#22222A"/>
<ellipse cx="25.2437" cy="205.574" rx="1.20208" ry="1.20219" fill="#22222A"/>
<ellipse cx="25.2437" cy="193.552" rx="1.20208" ry="1.20219" fill="#22222A"/>
<ellipse cx="49.286" cy="181.53" rx="1.20208" ry="1.20219" fill="#22222A"/>
<ellipse cx="61.3063" cy="181.53" rx="1.20208" ry="1.20219" fill="#22222A"/>
<ellipse cx="97.3688" cy="205.574" rx="1.20208" ry="1.20219" fill="#22222A"/>
<ellipse cx="97.3688" cy="217.596" rx="1.20208" ry="1.20219" fill="#22222A"/>
<ellipse cx="110.592" cy="217.596" rx="1.20208" ry="1.20219" fill="#22222A"/>
<ellipse cx="109.39" cy="193.552" rx="1.20208" ry="1.20219" fill="#22222A"/>
<ellipse cx="121.411" cy="193.552" rx="1.20208" ry="1.20219" fill="#22222A"/>
<ellipse cx="133.431" cy="193.552" rx="1.20208" ry="1.20219" fill="#22222A"/>
<ellipse cx="133.431" cy="181.53" rx="1.20208" ry="1.20219" fill="#22222A"/>
<ellipse cx="145.452" cy="205.574" rx="1.20208" ry="1.20219" fill="#22222A"/>
<ellipse cx="157.473" cy="193.552" rx="1.20208" ry="1.20219" fill="#2D2D39"/>
<ellipse cx="169.495" cy="181.53" rx="1.20208" ry="1.20219" fill="#22222A"/>
<ellipse cx="169.495" cy="169.508" rx="1.20208" ry="1.20219" fill="#22222A"/>
<ellipse cx="157.473" cy="157.486" rx="1.20208" ry="1.20219" fill="#22222A"/>
<ellipse cx="145.452" cy="145.464" rx="1.20208" ry="1.20219" fill="#22222A"/>
<ellipse cx="133.431" cy="133.443" rx="1.20208" ry="1.20219" fill="#22222A"/>
<ellipse cx="169.495" cy="145.464" rx="1.20208" ry="1.20219" fill="#2D2D39"/>
<ellipse cx="169.495" cy="132.241" rx="1.20208" ry="1.20219" fill="#22222A"/>
<ellipse cx="169.495" cy="121.421" rx="1.20208" ry="1.20219" fill="#22222A"/>
<ellipse cx="181.515" cy="133.443" rx="1.20208" ry="1.20219" fill="#22222A"/>
<ellipse cx="217.577" cy="181.53" rx="1.20208" ry="1.20219" fill="#22222A"/>
<ellipse cx="229.599" cy="181.53" rx="1.20208" ry="1.20219" fill="#22222A"/>
<ellipse cx="229.599" cy="193.552" rx="1.20208" ry="1.20219" fill="#22222A"/>
<ellipse cx="229.599" cy="205.574" rx="1.20208" ry="1.20219" fill="#22222A"/>
<ellipse cx="241.619" cy="205.574" rx="1.20208" ry="1.20219" fill="#22222A"/>
<ellipse cx="241.619" cy="193.552" rx="1.20208" ry="1.20219" fill="#22222A"/>
<ellipse cx="241.619" cy="169.508" rx="1.20208" ry="1.20219" fill="#22222A"/>
<ellipse cx="241.619" cy="157.486" rx="1.20208" ry="1.20219" fill="#22222A"/>
<ellipse cx="253.639" cy="169.508" rx="1.20208" ry="1.20219" fill="#22222A"/>
<ellipse cx="265.661" cy="169.508" rx="1.20208" ry="1.20219" fill="#22222A"/>
<ellipse cx="265.661" cy="145.464" rx="1.20208" ry="1.20219" fill="#22222A"/>
<ellipse cx="277.682" cy="145.464" rx="1.20208" ry="1.20219" fill="#22222A"/>
<ellipse cx="265.661" cy="133.443" rx="1.20208" ry="1.20219" fill="#22222A"/>
<ellipse cx="241.619" cy="133.443" rx="1.20208" ry="1.20219" fill="#22222A"/>
<ellipse cx="241.619" cy="121.421" rx="1.20208" ry="1.20219" fill="#22222A"/>
<ellipse cx="265.661" cy="121.421" rx="1.20208" ry="1.20219" fill="#22222A"/>
<ellipse cx="277.682" cy="109.399" rx="1.20208" ry="1.20219" fill="#22222A"/>
<ellipse cx="277.682" cy="97.3771" rx="1.20208" ry="1.20219" fill="#22222A"/>
<ellipse cx="277.682" cy="85.3553" rx="1.20208" ry="1.20219" fill="#22222A"/>
<ellipse cx="289.703" cy="73.3334" rx="1.20208" ry="1.20219" fill="#22222A"/>
<ellipse cx="301.723" cy="73.3334" rx="1.20208" ry="1.20219" fill="#22222A"/>
<ellipse cx="289.703" cy="61.3114" rx="1.20208" ry="1.20219" fill="#22222A"/>
<ellipse cx="276.48" cy="49.2896" rx="1.20208" ry="1.20219" fill="#22222A"/>
<ellipse cx="277.682" cy="38.4699" rx="1.20208" ry="1.20219" fill="#22222A"/>
<ellipse cx="289.703" cy="25.2459" rx="1.20208" ry="1.20219" fill="#22222A"/>
<ellipse cx="289.703" cy="13.224" rx="1.20208" ry="1.20219" fill="#22222A"/>
<ellipse cx="301.723" cy="25.2459" rx="1.20208" ry="1.20219" fill="#22222A"/>
<ellipse cx="301.723" cy="37.2677" rx="1.20208" ry="1.20219" fill="#22222A"/>
<ellipse cx="313.744" cy="37.2677" rx="1.20208" ry="1.20219" fill="#22222A"/>
<ellipse cx="313.744" cy="25.2459" rx="1.20208" ry="1.20219" fill="#22222A"/>
<ellipse cx="313.744" cy="73.3334" rx="1.20208" ry="1.20219" fill="#22222A"/>
<ellipse cx="325.765" cy="73.3334" rx="1.20208" ry="1.20219" fill="#22222A"/>
<ellipse cx="364.232" cy="49.2896" rx="1.20208" ry="1.20219" fill="#22222A"/>
<ellipse cx="376.253" cy="61.3114" rx="1.20208" ry="1.20219" fill="#22222A"/>
<ellipse cx="389.475" cy="61.3114" rx="1.20208" ry="1.20219" fill="#22222A"/>
<ellipse cx="424.336" cy="37.2677" rx="1.20208" ry="1.20219" fill="#22222A"/>
<ellipse cx="436.357" cy="49.2896" rx="1.20208" ry="1.20219" fill="#22222A"/>
<ellipse cx="448.378" cy="61.3114" rx="1.20208" ry="1.20219" fill="#22222A"/>
<ellipse cx="424.336" cy="73.3334" rx="1.20208" ry="1.20219" fill="#22222A"/>
<ellipse cx="412.315" cy="72.131" rx="1.20208" ry="1.20219" fill="#22222A"/>
<ellipse cx="424.336" cy="85.3553" rx="1.20208" ry="1.20219" fill="#22222A"/>
<ellipse cx="436.357" cy="97.3771" rx="1.20208" ry="1.20219" fill="#22222A"/>
<ellipse cx="448.378" cy="97.3771" rx="1.20208" ry="1.20219" fill="#22222A"/>
<ellipse cx="460.398" cy="97.3771" rx="1.20208" ry="1.20219" fill="#22222A"/>
<ellipse cx="448.378" cy="109.399" rx="1.20208" ry="1.20219" fill="#22222A"/>
<ellipse cx="449.58" cy="121.421" rx="1.20208" ry="1.20219" fill="#22222A"/>
<ellipse cx="460.398" cy="121.421" rx="1.20208" ry="1.20219" fill="#22222A"/>
<ellipse cx="472.419" cy="120.219" rx="1.20208" ry="1.20219" fill="#2D2D39"/>
<ellipse cx="485.642" cy="121.421" rx="1.20208" ry="1.20219" fill="#22222A"/>
<ellipse cx="496.461" cy="109.399" rx="1.20208" ry="1.20219" fill="#22222A"/>
<ellipse cx="509.684" cy="109.399" rx="1.20208" ry="1.20219" fill="#22222A"/>
<ellipse cx="509.684" cy="121.421" rx="1.20208" ry="1.20219" fill="#22222A"/>
<ellipse cx="460.398" cy="133.443" rx="1.20208" ry="1.20219" fill="#22222A"/>
<ellipse cx="460.398" cy="146.667" rx="1.20208" ry="1.20219" fill="#22222A"/>
<ellipse cx="473.621" cy="169.508" rx="1.20208" ry="1.20219" fill="#22222A"/>
<ellipse cx="460.398" cy="181.53" rx="1.20208" ry="1.20219" fill="#22222A"/>
<ellipse cx="448.378" cy="181.53" rx="1.20208" ry="1.20219" fill="#22222A"/>
<ellipse cx="448.378" cy="193.552" rx="1.20208" ry="1.20219" fill="#22222A"/>
<ellipse cx="448.378" cy="206.776" rx="1.20208" ry="1.20219" fill="#22222A"/>
<ellipse cx="484.44" cy="205.574" rx="1.20208" ry="1.20219" fill="#22222A"/>
<ellipse cx="497.664" cy="205.574" rx="1.20208" ry="1.20219" fill="#22222A"/>
<ellipse cx="496.461" cy="193.552" rx="1.20208" ry="1.20219" fill="#22222A"/>
<ellipse cx="485.642" cy="193.552" rx="1.20208" ry="1.20219" fill="#22222A"/>
<ellipse cx="497.664" cy="181.53" rx="1.20208" ry="1.20219" fill="#22222A"/>
<ellipse cx="484.44" cy="169.508" rx="1.20208" ry="1.20219" fill="#22222A"/>
<ellipse cx="509.684" cy="182.732" rx="1.20208" ry="1.20219" fill="#22222A"/>
<ellipse cx="545.747" cy="133.443" rx="1.20208" ry="1.20219" fill="#22222A"/>
<ellipse cx="556.565" cy="122.623" rx="1.20208" ry="1.20219" fill="#22222A"/>
<ellipse cx="556.565" cy="134.645" rx="1.20208" ry="1.20219" fill="#22222A"/>
<ellipse cx="556.565" cy="145.464" rx="1.20208" ry="1.20219" fill="#22222A"/>
<ellipse cx="568.587" cy="157.486" rx="1.20208" ry="1.20219" fill="#22222A"/>
<ellipse cx="581.808" cy="146.667" rx="1.20208" ry="1.20219" fill="#22222A"/>
<ellipse cx="593.83" cy="133.443" rx="1.20208" ry="1.20219" fill="#22222A"/>
<ellipse cx="593.83" cy="109.399" rx="1.20208" ry="1.20219" fill="#22222A"/>
<ellipse cx="556.565" cy="169.508" rx="1.20208" ry="1.20219" fill="#22222A"/>
<ellipse cx="557.768" cy="181.53" rx="1.20208" ry="1.20219" fill="#22222A"/>
<ellipse cx="568.587" cy="194.754" rx="1.20208" ry="1.20219" fill="#22222A"/>
<ellipse cx="592.627" cy="194.754" rx="1.20208" ry="1.20219" fill="#22222A"/>
<ellipse cx="604.649" cy="193.552" rx="1.20208" ry="1.20219" fill="#22222A"/>
<ellipse cx="616.669" cy="194.754" rx="1.20208" ry="1.20219" fill="#22222A"/>
<ellipse cx="629.892" cy="206.776" rx="1.20208" ry="1.20219" fill="#22222A"/>
<ellipse cx="631.094" cy="217.596" rx="1.20208" ry="1.20219" fill="#22222A"/>
<ellipse cx="616.669" cy="217.596" rx="1.20208" ry="1.20219" fill="#22222A"/>
<ellipse cx="665.955" cy="182.732" rx="1.20208" ry="1.20219" fill="#22222A"/>
<ellipse cx="677.976" cy="181.53" rx="1.20208" ry="1.20219" fill="#22222A"/>
<ellipse cx="700.815" cy="193.552" rx="1.20208" ry="1.20219" fill="#22222A"/>
<ellipse cx="702.017" cy="205.574" rx="1.20208" ry="1.20219" fill="#22222A"/>
<ellipse cx="715.24" cy="205.574" rx="1.20208" ry="1.20219" fill="#22222A"/>
<ellipse cx="726.059" cy="217.596" rx="1.20208" ry="1.20219" fill="#22222A"/>
<ellipse cx="593.83" cy="181.53" rx="1.20208" ry="1.20219" fill="#22222A"/>
<ellipse cx="581.808" cy="206.776" rx="1.20208" ry="1.20219" fill="#22222A"/>
<ellipse cx="580.607" cy="218.798" rx="1.20208" ry="1.20219" fill="#22222A"/>
<ellipse cx="568.587" cy="217.596" rx="1.20208" ry="1.20219" fill="#22222A"/>
<ellipse cx="557.768" cy="217.596" rx="1.20208" ry="1.20219" fill="#22222A"/>
<ellipse cx="460.398" cy="73.3334" rx="1.20208" ry="1.20219" fill="#22222A"/>
<ellipse cx="473.621" cy="84.1531" rx="1.20208" ry="1.20219" fill="#22222A"/>
<ellipse cx="497.664" cy="86.5574" rx="1.20208" ry="1.20219" fill="#22222A"/>
<ellipse cx="496.461" cy="73.3334" rx="1.20208" ry="1.20219" fill="#22222A"/>
<ellipse cx="389.475" cy="49.2896" rx="1.20208" ry="1.20219" fill="#2D2D39"/>
<ellipse cx="389.475" cy="37.2677" rx="1.20208" ry="1.20219" fill="#22222A"/>
<ellipse cx="389.475" cy="25.2459" rx="1.20208" ry="1.20219" fill="#22222A"/>
<ellipse cx="400.294" cy="13.224" rx="1.20208" ry="1.20219" fill="#22222A"/>
<ellipse cx="401.496" cy="1.20219" rx="1.20208" ry="1.20219" fill="#22222A"/>
<ellipse cx="412.315" cy="1.20219" rx="1.20208" ry="1.20219" fill="#22222A"/>
<ellipse cx="413.517" cy="13.224" rx="1.20208" ry="1.20219" fill="#22222A"/>
<ellipse cx="425.538" cy="1.20219" rx="1.20208" ry="1.20219" fill="#22222A"/>
<ellipse cx="436.357" cy="13.224" rx="1.20208" ry="1.20219" fill="#22222A"/>
<ellipse cx="364.232" cy="1.20219" rx="1.20208" ry="1.20219" fill="#22222A"/>
<ellipse cx="265.661" cy="97.3771" rx="1.20208" ry="1.20219" fill="#22222A"/>
<ellipse cx="241.619" cy="109.399" rx="1.20208" ry="1.20219" fill="#22222A"/>
<ellipse cx="217.577" cy="109.399" rx="1.20208" ry="1.20219" fill="#22222A"/>
<ellipse cx="229.599" cy="97.3771" rx="1.20208" ry="1.20219" fill="#22222A"/>
<ellipse cx="216.376" cy="73.3334" rx="1.20208" ry="1.20219" fill="#22222A"/>
<ellipse cx="229.599" cy="73.3334" rx="1.20208" ry="1.20219" fill="#22222A"/>
<ellipse cx="229.599" cy="61.3114" rx="1.20208" ry="1.20219" fill="#22222A"/>
<ellipse cx="229.599" cy="49.2896" rx="1.20208" ry="1.20219" fill="#22222A"/>
<ellipse cx="241.619" cy="61.3114" rx="1.20208" ry="1.20219" fill="#22222A"/>
<ellipse cx="253.639" cy="61.3114" rx="1.20208" ry="1.20219" fill="#22222A"/>
<ellipse cx="265.661" cy="181.53" rx="1.20208" ry="1.20219" fill="#22222A"/>
<ellipse cx="277.682" cy="181.53" rx="1.20208" ry="1.20219" fill="#22222A"/>
<ellipse cx="277.682" cy="193.552" rx="1.20208" ry="1.20219" fill="#22222A"/>
<ellipse cx="277.682" cy="206.776" rx="1.20208" ry="1.20219" fill="#22222A"/>
<ellipse cx="145.452" cy="217.596" rx="1.20208" ry="1.20219" fill="#22222A"/>
<ellipse cx="157.473" cy="217.596" rx="1.20208" ry="1.20219" fill="#22222A"/>
<ellipse cx="169.495" cy="217.596" rx="1.20208" ry="1.20219" fill="#22222A"/>
</svg>
