<svg width="8" height="13" viewBox="0 0 8 13" fill="none" xmlns="http://www.w3.org/2000/svg">
<path d="M5.17718 2.02078H6.78556C6.93353 2.02078 7.05362 1.90762 7.05362 1.76819V0.252598C7.05362 0.113164 6.93353 0 6.78556 0H5.17718C3.55165 0 2.22849 1.24632 2.22849 2.77858V4.54676H0.352047C0.204077 4.54676 0.0839844 4.65993 0.0839844 4.79936V6.31495C0.0839844 6.45438 0.204077 6.56755 0.352047 6.56755H2.22849V11.8721C2.22849 12.0115 2.34858 12.1247 2.49655 12.1247H4.10493C4.2529 12.1247 4.37299 12.0115 4.37299 11.8721V6.56755H6.24943C6.3647 6.56755 6.4671 6.49783 6.5041 6.39477L7.04022 4.87918C7.06756 4.80239 7.05362 4.71752 7.00323 4.65134C6.9523 4.58566 6.87188 4.54676 6.78556 4.54676H4.37299V2.77858C4.37299 2.36078 4.73381 2.02078 5.17718 2.02078Z" fill="white"/>
</svg>
