<svg width="13" height="12" viewBox="0 0 13 12" fill="none" xmlns="http://www.w3.org/2000/svg">
<path d="M12.0567 3.51818C12.0658 3.84546 12.0726 4.13636 12.0772 4.39091C12.0817 4.64546 12.084 5.18181 12.084 6C12.084 6.81819 12.0817 7.35454 12.0772 7.60909C12.0726 7.86364 12.0658 8.15 12.0567 8.46818C12.0385 8.79546 12.0044 9.07273 11.9544 9.3C11.9044 9.52727 11.8431 9.73636 11.7703 9.92727C11.6976 10.1273 11.6067 10.3136 11.4976 10.4864C11.3885 10.6591 11.2476 10.8273 11.0749 10.9909C10.9113 11.1636 10.7431 11.3045 10.5703 11.4136C10.3976 11.5227 10.2113 11.6136 10.0113 11.6864C9.82035 11.7591 9.61126 11.8205 9.38398 11.8705C9.15671 11.9205 8.88399 11.9545 8.5658 11.9727C8.23853 11.9818 7.94762 11.9886 7.69308 11.9932C7.43853 11.9977 6.90217 12 6.08398 12C5.2658 12 4.72944 11.9977 4.47489 11.9932C4.22035 11.9886 3.93399 11.9818 3.6158 11.9727C3.28853 11.9545 3.01126 11.9205 2.78399 11.8705C2.55671 11.8205 2.34762 11.7591 2.15671 11.6864C1.95671 11.6136 1.77035 11.5227 1.59762 11.4136C1.42489 11.3045 1.25671 11.1636 1.09307 10.9909C0.920347 10.8273 0.779441 10.6591 0.670349 10.4864C0.561258 10.3136 0.470349 10.1273 0.397621 9.92727C0.324893 9.73636 0.263532 9.52727 0.213531 9.3C0.163531 9.07273 0.129438 8.8 0.111256 8.48182C0.102165 8.15454 0.0953467 7.86364 0.0908012 7.60909C0.0862557 7.35454 0.0839844 6.81819 0.0839844 6C0.0839844 5.18181 0.0862557 4.64546 0.0908012 4.39091C0.0953467 4.13636 0.102165 3.85 0.111256 3.53182C0.129438 3.20454 0.163531 2.92727 0.213531 2.7C0.263532 2.47273 0.324893 2.26364 0.397621 2.07273C0.470349 1.87273 0.561258 1.68636 0.670349 1.51364C0.779441 1.34091 0.920347 1.17273 1.09307 1.00909C1.25671 0.836363 1.42489 0.695455 1.59762 0.586364C1.77035 0.477272 1.95671 0.386364 2.15671 0.313636C2.34762 0.240909 2.55671 0.179546 2.78399 0.129545C3.01126 0.0795452 3.28398 0.0454546 3.60217 0.0272727C3.92944 0.0181818 4.22035 0.0113637 4.47489 0.00681818C4.72944 0.0022727 5.2658 0 6.08398 0C6.90217 0 7.43853 0.0022727 7.69308 0.00681818C7.94762 0.0113637 8.23398 0.0181818 8.55217 0.0272727C8.87944 0.0454546 9.15671 0.0795452 9.38398 0.129545C9.61126 0.179546 9.82035 0.240909 10.0113 0.313636C10.2113 0.386364 10.3976 0.477272 10.5703 0.586364C10.7431 0.695455 10.9113 0.836363 11.0749 1.00909C11.2476 1.17273 11.3885 1.34091 11.4976 1.51364C11.6067 1.68636 11.6976 1.87273 11.7703 2.07273C11.8431 2.26364 11.9044 2.47273 11.9544 2.7C12.0044 2.92727 12.0385 3.2 12.0567 3.51818ZM10.9658 8.42727C10.984 8.10909 10.9953 7.825 10.9999 7.575C11.0044 7.325 11.0067 6.8 11.0067 6C11.0067 5.2 11.0044 4.675 10.9999 4.425C10.9953 4.175 10.984 3.89091 10.9658 3.57273C10.9567 3.28182 10.9317 3.05 10.8908 2.87727C10.8499 2.70454 10.8067 2.56364 10.7613 2.45455C10.7067 2.31818 10.6454 2.19546 10.5772 2.08636C10.509 1.97727 10.4203 1.87273 10.3113 1.77273C10.2113 1.66364 10.1067 1.575 9.99762 1.50682C9.88853 1.43864 9.76581 1.37727 9.62944 1.32273C9.52035 1.27727 9.37944 1.23409 9.20671 1.19318C9.03398 1.15227 8.80217 1.12727 8.51126 1.11818C8.19307 1.1 7.90899 1.08864 7.65899 1.08409C7.40898 1.07955 6.88399 1.07727 6.08398 1.07727C5.28398 1.07727 4.75899 1.07955 4.50898 1.08409C4.25898 1.08864 3.97489 1.1 3.65671 1.11818C3.3658 1.12727 3.13399 1.15227 2.96126 1.19318C2.78853 1.23409 2.64762 1.27727 2.53853 1.32273C2.40216 1.37727 2.27944 1.43864 2.17035 1.50682C2.06126 1.575 1.95671 1.66364 1.85671 1.77273C1.74762 1.87273 1.65898 1.97727 1.5908 2.08636C1.52262 2.19546 1.46126 2.31818 1.40671 2.45455C1.36126 2.56364 1.31808 2.70454 1.27717 2.87727C1.23626 3.05 1.21126 3.28182 1.20217 3.57273C1.18399 3.89091 1.17262 4.175 1.16808 4.425C1.16353 4.675 1.16126 5.2 1.16126 6C1.16126 6.8 1.16353 7.325 1.16808 7.575C1.17262 7.825 1.18399 8.10909 1.20217 8.42727C1.21126 8.71818 1.23626 8.95 1.27717 9.12273C1.31808 9.29546 1.36126 9.43636 1.40671 9.54545C1.46126 9.68182 1.52262 9.80454 1.5908 9.91364C1.65898 10.0227 1.74762 10.1273 1.85671 10.2273C1.95671 10.3364 2.06126 10.425 2.17035 10.4932C2.27944 10.5614 2.40216 10.6227 2.53853 10.6773C2.64762 10.7227 2.78853 10.7659 2.96126 10.8068C3.13399 10.8477 3.3658 10.8727 3.65671 10.8818C3.97489 10.9 4.25898 10.9114 4.50898 10.9159C4.75899 10.9205 5.28398 10.9227 6.08398 10.9227C6.88399 10.9227 7.40898 10.9205 7.65899 10.9159C7.90899 10.9114 8.19307 10.9 8.51126 10.8818C8.80217 10.8727 9.03398 10.8477 9.20671 10.8068C9.37944 10.7659 9.52035 10.7227 9.62944 10.6773C9.76581 10.6227 9.88853 10.5614 9.99762 10.4932C10.1067 10.425 10.2113 10.3364 10.3113 10.2273C10.4203 10.1273 10.509 10.0227 10.5772 9.91364C10.6454 9.80454 10.7067 9.68182 10.7613 9.54545C10.8067 9.43636 10.8499 9.29546 10.8908 9.12273C10.9317 8.95 10.9567 8.71818 10.9658 8.42727ZM6.08398 2.91818C6.51126 2.91818 6.91126 3 7.28399 3.16364C7.65671 3.31818 7.98398 3.53636 8.2658 3.81818C8.54762 4.1 8.7658 4.42727 8.92035 4.8C9.08399 5.17273 9.1658 5.57273 9.1658 6C9.1658 6.42728 9.08399 6.82727 8.92035 7.2C8.7658 7.57273 8.54762 7.9 8.2658 8.18182C7.98398 8.46364 7.65671 8.68182 7.28399 8.83636C6.91126 9 6.51126 9.08182 6.08398 9.08182C5.65671 9.08182 5.25671 9 4.88398 8.83636C4.51125 8.68182 4.18399 8.46364 3.90217 8.18182C3.62035 7.9 3.40217 7.57273 3.24762 7.2C3.08398 6.82727 3.00217 6.42728 3.00217 6C3.00217 5.57273 3.08398 5.17273 3.24762 4.8C3.40217 4.42727 3.62035 4.1 3.90217 3.81818C4.18399 3.53636 4.51125 3.31818 4.88398 3.16364C5.25671 3 5.65671 2.91818 6.08398 2.91818ZM6.08398 8.00455C6.63853 8.00455 7.11126 7.80909 7.50217 7.41818C7.89308 7.02727 8.08853 6.55455 8.08853 6C8.08853 5.44545 7.89308 4.97273 7.50217 4.58182C7.11126 4.19091 6.63853 3.99545 6.08398 3.99545C5.52944 3.99545 5.05671 4.19091 4.6658 4.58182C4.27489 4.97273 4.07944 5.44545 4.07944 6C4.07944 6.55455 4.27489 7.02727 4.6658 7.41818C5.05671 7.80909 5.52944 8.00455 6.08398 8.00455ZM9.98399 2.63182C10.0294 2.82273 9.99989 3.00227 9.89535 3.17045C9.7908 3.33864 9.64308 3.44545 9.45217 3.49091C9.26126 3.53636 9.08171 3.50682 8.91353 3.40227C8.74535 3.29773 8.63853 3.15 8.59307 2.95909C8.54762 2.76818 8.57717 2.58864 8.68171 2.42045C8.78626 2.25227 8.93398 2.14545 9.12489 2.1C9.3158 2.04545 9.49535 2.07273 9.66353 2.18182C9.83171 2.29091 9.93853 2.44091 9.98399 2.63182Z" fill="white"/>
</svg>
