<svg width="12" height="12" viewBox="0 0 12 12" fill="none" xmlns="http://www.w3.org/2000/svg">
<path d="M1.56766 2.9671C2.387 2.9671 3.05121 2.30289 3.05121 1.48355C3.05121 0.664208 2.387 0 1.56766 0C0.748314 0 0.0841064 0.664208 0.0841064 1.48355C0.0841064 2.30289 0.748314 2.9671 1.56766 2.9671Z" fill="white"/>
<path d="M2.80383 3.95801H0.331243C0.194756 3.95801 0.0839844 4.06878 0.0839844 4.20527V11.623C0.0839844 11.7595 0.194756 11.8703 0.331243 11.8703H2.80383C2.94031 11.8703 3.05108 11.7595 3.05108 11.623V4.20527C3.05108 4.06878 2.94031 3.95801 2.80383 3.95801Z" fill="white"/>
<path d="M10.172 3.5464C9.11525 3.18442 7.7934 3.50239 7.00069 4.07257C6.97349 3.96625 6.87657 3.88712 6.76135 3.88712H4.28876C4.15228 3.88712 4.0415 3.9979 4.0415 4.13438V11.5521C4.0415 11.6886 4.15228 11.7994 4.28876 11.7994H6.76135C6.89783 11.7994 7.0086 11.6886 7.0086 11.5521V6.22124C7.40817 5.87706 7.92297 5.76728 8.34429 5.94629C8.75276 6.11888 8.98667 6.5402 8.98667 7.10148V11.5521C8.98667 11.6886 9.09744 11.7994 9.23393 11.7994H11.7065C11.843 11.7994 11.9538 11.6886 11.9538 11.5521V6.6035C11.9256 4.57153 10.9697 3.81937 10.172 3.5464Z" fill="white"/>
</svg>
