<svg width="115" height="27" viewBox="0 0 115 27" fill="none" xmlns="http://www.w3.org/2000/svg">
<path d="M27.0527 18.2196C25.8928 19.3092 24.9727 20.1761 24.2099 20.8905C22.3695 19.1736 20.3451 17.5827 18.7106 15.6624C17.2383 13.9335 17.3183 11.7638 18.5411 9.84113C19.2095 8.7902 20.1926 7.94266 21.1031 6.92563C22.1637 7.92087 23.1129 8.80957 24.1251 9.7588C23.8612 10.047 23.6311 10.3061 23.3938 10.5579C22.062 11.9624 22.0329 13.3935 23.4084 14.7859C24.5295 15.924 25.733 16.9822 27.0527 18.2196Z" fill="white"/>
<path d="M8.68561 2.94465C9.55493 3.51855 10.2136 4.16025 10.9981 4.42177C11.9474 4.73899 12.9402 4.52106 13.6909 3.70985C14.8217 2.48699 15.9647 1.27381 17.1536 9.15527e-05C18.2603 1.04376 19.1708 1.90098 20.1055 2.78241C18.3281 4.57433 16.7032 6.39289 14.8895 7.99351C13.0685 9.59897 10.1579 9.43431 8.2691 7.85306C5.94445 5.90859 5.94687 5.911 7.99305 3.71469C8.24005 3.45075 8.47493 3.17954 8.68561 2.94465Z" fill="white"/>
<path d="M17.9139 24.0457C17.0446 23.4718 16.3859 22.8301 15.6014 22.5686C14.6521 22.2514 13.6593 22.4693 12.9086 23.2805C11.7778 24.5034 10.6349 25.7165 9.44589 26.9903C8.33926 25.9466 7.42877 25.0894 6.49406 24.2079C8.27145 22.416 9.89629 20.5975 11.71 18.9968C13.531 17.3914 16.4416 17.556 18.3304 19.1373C20.6551 21.0818 20.6526 21.0793 18.6065 23.2757C18.3595 23.5372 18.1246 23.8108 17.9139 24.0457Z" fill="white"/>
<path d="M2.37752 18.1928C4.69249 15.2434 4.66827 14.8051 2.10873 12.1681C1.4525 11.4925 0.742999 10.8629 0.140042 10.1437C-0.0294636 9.94029 -0.0512565 9.3785 0.108563 9.17993C0.742999 8.39294 1.4743 7.68344 2.116 7.00057C3.97814 8.79007 5.96378 10.4028 7.57408 12.3279C9.1408 14.2021 8.81632 16.89 7.19875 18.7376C6.60306 19.4181 5.96378 20.0598 5.24701 20.8226C4.2663 19.9218 3.34613 19.0791 2.37752 18.1928Z" fill="white"/>
<path d="M15.8411 16.5415C13.7659 15.3913 11.9158 15.2532 9.83092 16.5754C10.9472 14.459 11.0611 12.5726 9.69048 10.4611C11.7972 11.6573 13.6957 11.8123 15.9017 10.4126C14.5892 12.5508 14.5795 14.4493 15.8411 16.5415Z" fill="#01AEE0"/>
<path d="M35.2998 20.4951V10.7751H31.8348V8.79509H41.2848V10.7751H37.8198V20.4951H35.2998ZM45.0118 20.6751C44.1718 20.6751 43.4818 20.4751 42.9418 20.0751C42.4018 19.6651 42.0018 19.1051 41.7418 18.3951C41.4818 17.6851 41.3518 16.8801 41.3518 15.9801C41.3518 15.0501 41.4818 14.2351 41.7418 13.5351C42.0118 12.8351 42.4168 12.2901 42.9568 11.9001C43.4968 11.5101 44.1768 11.3151 44.9968 11.3151C45.6268 11.3151 46.1418 11.4401 46.5418 11.6901C46.9518 11.9301 47.2618 12.2551 47.4718 12.6651H47.8318V11.4951H50.0818V20.4951H47.8318V19.3251H47.4718C47.2618 19.7051 46.9568 20.0251 46.5568 20.2851C46.1568 20.5451 45.6418 20.6751 45.0118 20.6751ZM45.6418 18.9651C46.2518 18.9651 46.7368 18.7001 47.0968 18.1701C47.4668 17.6301 47.6518 16.9051 47.6518 15.9951C47.6518 15.0751 47.4668 14.3501 47.0968 13.8201C46.7368 13.2901 46.2518 13.0251 45.6418 13.0251C45.0918 13.0251 44.6568 13.2751 44.3368 13.7751C44.0268 14.2651 43.8718 15.0051 43.8718 15.9951C43.8718 16.9851 44.0268 17.7301 44.3368 18.2301C44.6568 18.7201 45.0918 18.9651 45.6418 18.9651ZM53.0403 20.4951C52.7603 20.1751 52.5603 19.8151 52.4403 19.4151C52.3303 19.0051 52.2753 18.4701 52.2753 17.8101V8.49509H54.7053V17.5551C54.7053 18.3151 54.7903 18.9101 54.9603 19.3401C55.1303 19.7601 55.3553 20.1151 55.6353 20.4051V20.4951H53.0403ZM60.7812 20.7201C59.3612 20.7201 58.2762 20.2951 57.5262 19.4451C56.7862 18.5951 56.4162 17.4401 56.4162 15.9801C56.4162 15.0001 56.5812 14.1601 56.9112 13.4601C57.2512 12.7601 57.7412 12.2201 58.3812 11.8401C59.0312 11.4601 59.8212 11.2701 60.7512 11.2701C62.0912 11.2701 63.1162 11.6751 63.8262 12.4851C64.5462 13.2951 64.9062 14.4851 64.9062 16.0551V16.5651H58.7862C58.8362 17.3251 59.0312 17.9251 59.3712 18.3651C59.7212 18.7951 60.1912 19.0101 60.7812 19.0101C61.2512 19.0101 61.6262 18.8701 61.9062 18.5901C62.1962 18.3101 62.3862 17.9851 62.4762 17.6151H64.7862C64.6962 18.1651 64.4962 18.6751 64.1862 19.1451C63.8762 19.6151 63.4412 19.9951 62.8812 20.2851C62.3212 20.5751 61.6212 20.7201 60.7812 20.7201ZM58.7862 15.0351H62.5362C62.4962 14.3551 62.3262 13.8301 62.0262 13.4601C61.7262 13.0801 61.2962 12.8901 60.7362 12.8901C60.1862 12.8901 59.7412 13.0701 59.4012 13.4301C59.0712 13.7801 58.8662 14.3151 58.7862 15.0351ZM66.4733 20.4951V11.4951H68.7233V12.8451H69.0833C69.2633 12.3951 69.5383 12.0201 69.9083 11.7201C70.2883 11.4201 70.8433 11.2701 71.5733 11.2701C72.5733 11.2701 73.3233 11.5851 73.8233 12.2151C74.3233 12.8451 74.5733 13.7001 74.5733 14.7801V20.4951H72.1433V15.1851C72.1433 14.5651 72.0333 14.0901 71.8133 13.7601C71.5933 13.4201 71.2333 13.2501 70.7333 13.2501C70.1533 13.2501 69.7033 13.4801 69.3833 13.9401C69.0633 14.3901 68.9033 14.9551 68.9033 15.6351V20.4951H66.4733ZM77.9886 20.4951C77.7586 20.2251 77.5736 19.9001 77.4336 19.5201C77.3036 19.1401 77.2386 18.5701 77.2386 17.8101V13.2051H76.0086V11.4951H77.2686V9.24509H79.6536V11.4951H81.1086V13.2051H79.6536V17.5551C79.6536 18.3451 79.7436 18.9501 79.9236 19.3701C80.1036 19.7901 80.3186 20.1351 80.5686 20.4051V20.4951H77.9886ZM83.3977 20.4951C83.1177 20.1751 82.9177 19.8151 82.7977 19.4151C82.6877 19.0051 82.6327 18.4701 82.6327 17.8101V8.49509H85.0627V17.5551C85.0627 18.3151 85.1477 18.9101 85.3177 19.3401C85.4877 19.7601 85.7127 20.1151 85.9927 20.4051V20.4951H83.3977ZM87.9287 23.4951V23.4651C88.1787 23.0551 88.4487 22.5801 88.7387 22.0401C89.0287 21.5001 89.2837 20.9851 89.5037 20.4951L86.4137 11.5851V11.4951H88.8137L89.7437 14.1951C89.8937 14.6251 90.0437 15.0851 90.1937 15.5751C90.3437 16.0651 90.4937 16.6851 90.6437 17.4351H91.0037C91.1537 16.6851 91.3037 16.0651 91.4537 15.5751C91.6037 15.0851 91.7537 14.6251 91.9037 14.1951L92.8337 11.4951H95.1137V11.5851L92.3537 19.2651C91.9937 20.2751 91.6437 21.1351 91.3037 21.8451C90.9737 22.5651 90.6937 23.1151 90.4637 23.4951H87.9287ZM96.474 20.5851C96.004 20.5851 95.644 20.4551 95.394 20.1951C95.144 19.9251 95.019 19.5751 95.019 19.1451C95.019 18.7051 95.144 18.3551 95.394 18.0951C95.644 17.8351 96.004 17.7051 96.474 17.7051C96.944 17.7051 97.299 17.8351 97.539 18.0951C97.779 18.3551 97.899 18.7051 97.899 19.1451C97.899 19.5751 97.779 19.9251 97.539 20.1951C97.299 20.4551 96.944 20.5851 96.474 20.5851ZM102.879 20.6751C102.039 20.6751 101.349 20.4751 100.809 20.0751C100.269 19.6651 99.869 19.1051 99.609 18.3951C99.349 17.6851 99.219 16.8801 99.219 15.9801C99.219 15.0501 99.349 14.2351 99.609 13.5351C99.879 12.8351 100.284 12.2901 100.824 11.9001C101.364 11.5101 102.044 11.3151 102.864 11.3151C103.494 11.3151 104.009 11.4401 104.409 11.6901C104.819 11.9301 105.129 12.2551 105.339 12.6651H105.699V11.4951H107.949V20.4951H105.699V19.3251H105.339C105.129 19.7051 104.824 20.0251 104.424 20.2851C104.024 20.5451 103.509 20.6751 102.879 20.6751ZM103.509 18.9651C104.119 18.9651 104.604 18.7001 104.964 18.1701C105.334 17.6301 105.519 16.9051 105.519 15.9951C105.519 15.0751 105.334 14.3501 104.964 13.8201C104.604 13.2901 104.119 13.0251 103.509 13.0251C102.959 13.0251 102.524 13.2751 102.204 13.7751C101.894 14.2651 101.739 15.0051 101.739 15.9951C101.739 16.9851 101.894 17.7301 102.204 18.2301C102.524 18.7201 102.959 18.9651 103.509 18.9651ZM110.172 20.4951V11.4951H112.602V20.4951H110.172ZM111.387 10.4601C110.957 10.4601 110.632 10.3501 110.412 10.1301C110.192 9.90009 110.082 9.60509 110.082 9.24509C110.082 8.88509 110.192 8.59509 110.412 8.37509C110.632 8.14509 110.957 8.03009 111.387 8.03009C111.817 8.03009 112.142 8.14509 112.362 8.37509C112.582 8.59509 112.692 8.88509 112.692 9.24509C112.692 9.60509 112.582 9.90009 112.362 10.1301C112.142 10.3501 111.817 10.4601 111.387 10.4601Z" fill="white"/>
</svg>
