<svg width="103" height="19" viewBox="0 0 103 19" fill="none" xmlns="http://www.w3.org/2000/svg">
<path fill-rule="evenodd" clip-rule="evenodd" d="M8.98807 18.9866H11.7181L20.0188 18.9866V5.85788C20.0188 2.63011 17.4021 0.0134888 14.1744 0.0134888C12.5514 0.0134888 11.083 0.674996 10.024 1.74309C8.96502 0.675 7.4966 0.0134945 5.87368 0.0134945C2.64592 0.0134945 0.0292969 2.63011 0.0292969 5.85788V13.4384L5.26103 8.33532C6.04032 7.57519 7.28827 7.59073 8.0484 8.37002C8.80853 9.14931 8.79299 10.3973 8.01369 11.1574L0.12738 18.8497C0.0954503 18.8809 0.0627341 18.9107 0.0292969 18.9393V18.9866H3.50376C3.60024 18.7904 3.73126 18.607 3.89668 18.4457L13.4805 9.09761C14.2598 8.33749 15.5077 8.35302 16.2679 9.13232C17.028 9.91161 17.0124 11.1596 16.2331 11.9197L8.98807 18.9866Z" fill="#BCBFC2"/>
<path d="M25.9425 14.9866V5.20096H27.4949L31.3481 11.2026H30.5581L34.3975 5.20096H35.9637V14.9866H33.7876V8.87403L34.1757 8.97105L31.6669 12.8798H30.2254L27.7305 8.97105L28.1047 8.87403V14.9866H25.9425ZM37.8404 14.9866V5.20096H40.0165V14.9866H37.8404ZM46.5167 15.139C45.8052 15.139 45.1353 15.0097 44.5069 14.7509C43.8878 14.4922 43.3473 14.1365 42.8853 13.6837C42.4232 13.2217 42.0582 12.6857 41.7903 12.0758C41.5315 11.4567 41.4022 10.7914 41.4022 10.0799C41.4022 9.36839 41.5361 8.7077 41.8041 8.09783C42.0721 7.48797 42.4417 6.95664 42.913 6.50386C43.3935 6.04184 43.9525 5.68608 44.5901 5.43659C45.2277 5.17786 45.9115 5.04849 46.6415 5.04849C47.4824 5.04849 48.2447 5.20096 48.9285 5.5059C49.6215 5.81083 50.1944 6.23127 50.6472 6.76721L49.1641 8.2503C48.8499 7.84372 48.4803 7.53879 48.0553 7.3355C47.6302 7.13221 47.1497 7.03057 46.6138 7.03057C46.0409 7.03057 45.528 7.15993 45.0752 7.41866C44.6225 7.66815 44.2667 8.02391 44.008 8.48593C43.7585 8.93871 43.6337 9.47004 43.6337 10.0799C43.6337 10.6898 43.7585 11.2257 44.008 11.6877C44.2575 12.1498 44.5994 12.5101 45.0337 12.7689C45.468 13.0276 45.9669 13.157 46.5306 13.157C47.1035 13.157 47.5886 13.0507 47.986 12.8382C48.3925 12.6164 48.7021 12.3022 48.9146 11.8956C49.1364 11.4798 49.2473 10.9762 49.2473 10.3848L50.6888 11.3551L46.3227 11.2858V9.44232H51.465V9.76111C51.465 10.9346 51.2525 11.9234 50.8274 12.7273C50.4116 13.522 49.8294 14.1226 49.081 14.5292C48.3417 14.9357 47.487 15.139 46.5167 15.139ZM54.4472 10.9531V9.34529H56.5124C56.9467 9.34529 57.2794 9.23441 57.5104 9.01264C57.7506 8.79087 57.8708 8.49055 57.8708 8.1117C57.8708 7.76056 57.7553 7.46949 57.5243 7.23848C57.2932 7.00746 56.9606 6.89196 56.5263 6.89196H54.4472V5.20096H56.7758C57.4226 5.20096 57.9909 5.32571 58.4806 5.5752C58.9704 5.81545 59.3539 6.15272 59.6311 6.58703C59.9083 7.02133 60.0469 7.52031 60.0469 8.08397C60.0469 8.65688 59.9083 9.16048 59.6311 9.59478C59.3539 10.0198 58.9658 10.3525 58.4668 10.5927C57.9678 10.833 57.381 10.9531 56.7065 10.9531H54.4472ZM52.7839 14.9866V5.20096H54.96V14.9866H52.7839ZM58.1064 14.9866L55.0571 10.7729L57.053 10.2324L60.6845 14.9866H58.1064ZM60.5904 14.9866L64.4714 5.20096H66.4396L70.279 14.9866H67.9781L65.0396 6.86424H65.8297L62.8497 14.9866H60.5904ZM62.7942 13.2124V11.4382H68.1306V13.2124H62.7942ZM72.6159 14.9866V5.33957H74.792V14.9866H72.6159ZM69.5527 7.09987V5.20096H77.8552V7.09987H69.5527ZM79.0704 14.9866V5.20096H81.2465V14.9866H79.0704ZM80.7337 14.9866V13.1015H86.0977V14.9866H80.7337ZM80.7337 10.8977V9.08194H85.6126V10.8977H80.7337ZM80.7337 7.07215V5.20096H86.0284V7.07215H80.7337ZM87.5979 14.9866V5.20096H89.7741V14.9866H87.5979ZM89.2751 14.9866V13.0738H94.1124V14.9866H89.2751ZM97.1164 11.3412L93.3463 5.20096H95.8689L98.7658 10.1631H97.1441L100.041 5.20096H102.508L98.7104 11.3412H97.1164ZM96.8531 14.9866V10.3433H99.0292V14.9866H96.8531Z" fill="#BCBFC2"/>
</svg>
