<svg width="116" height="29" viewBox="0 0 116 29" fill="none" xmlns="http://www.w3.org/2000/svg">
<path fill-rule="evenodd" clip-rule="evenodd" d="M8.11208 3.08759L14.6115 9.07587V9.0745V3.1014H15.8767V9.10267L22.4053 3.08759V9.91512H25.0857V19.7632H22.4135V25.8428L15.8767 20.0997V25.9087H14.6115V20.1944L8.11944 25.9125V19.7632H5.43896V9.91512H8.11208V3.08759ZM13.6577 11.1649H6.70415V18.5135H8.11785V16.1954L13.6577 11.1649ZM9.38456 16.7499V23.1238L14.6115 18.52V12.0024L9.38456 16.7499ZM15.9131 18.4591V11.9962L21.1416 16.7441V19.7632H21.1483V23.0587L15.9131 18.4591ZM22.4135 18.5135H23.8205V11.1649H16.9187L22.4135 16.1433V18.5135ZM21.1401 9.91512V5.96224L16.8497 9.91512H21.1401ZM13.6676 9.91512H9.37727V5.96224L13.6676 9.91512Z" fill="#BCBFC2"/>
<path d="M56.3443 9.76517H57.1476V11.4206H56.1078C55.2929 11.4206 54.6851 11.6166 54.2823 12.0098C53.8818 12.4018 53.6805 13.0465 53.6805 13.9427V19.3707H52.0388V9.80295H53.6805V11.3297C53.6805 11.4159 53.7238 11.4584 53.8081 11.4584C53.8561 11.4584 53.8924 11.4466 53.9182 11.4218C53.9439 11.3969 53.9661 11.3485 53.9919 11.2741C54.3081 10.2693 55.0938 9.76633 56.3455 9.76633H56.3443V9.76517ZM67.2644 11.8162C67.6954 12.5825 67.912 13.5059 67.912 14.585C67.912 15.6642 67.6965 16.5876 67.2644 17.3539C66.8324 18.1203 66.2726 18.6941 65.5853 19.0743C64.898 19.4546 64.1591 19.6447 63.3688 19.6447C61.8114 19.6447 60.7166 19.0189 60.0843 17.7672C60.0363 17.6692 59.9742 17.6196 59.9016 17.6196C59.829 17.6196 59.7915 17.6562 59.7915 17.7306V22.8646H58.1499V9.80172H59.7915V11.4395C59.7915 11.5126 59.8279 11.5505 59.9016 11.5505C59.9754 11.5505 60.0351 11.502 60.0843 11.4029C60.7166 10.1512 61.8114 9.52544 63.3688 9.52544C64.1591 9.52544 64.898 9.71555 65.5853 10.0958C66.2726 10.476 66.8312 11.0498 67.2644 11.8162ZM66.2715 14.585C66.2715 13.4562 65.9706 12.5765 65.3687 11.9449C64.7669 11.3131 63.9741 10.9979 62.987 10.9979C61.9999 10.9979 61.2072 11.3143 60.6054 11.9449C60.0023 12.5765 59.7822 13.4574 59.7822 14.585C59.7822 15.7127 60.0035 16.5936 60.6054 17.2252C61.2072 17.8582 62.0011 18.1722 62.987 18.1722C63.973 18.1722 64.7669 17.8558 65.3687 17.2252C65.9706 16.5947 66.2715 15.7127 66.2715 14.585ZM39.6164 11.8303C40.0473 12.5966 40.2639 13.52 40.2639 14.5992C40.2639 15.6785 40.0484 16.6018 39.6164 17.3681C39.1843 18.1345 38.6246 18.7083 37.9373 19.0885C37.2499 19.4687 36.5111 19.6588 35.7207 19.6588C34.1634 19.6588 33.0685 19.033 32.4362 17.7814C32.3882 17.6834 32.3262 17.6338 32.2535 17.6338C32.1809 17.6338 32.1435 17.6704 32.1435 17.7448V22.8788H30.503V9.81595H32.1447V11.4536C32.1447 11.5269 32.1809 11.5647 32.2548 11.5647C32.3285 11.5647 32.3882 11.5163 32.4374 11.417C33.0697 10.1654 34.1645 9.53959 35.7219 9.53959C36.5122 9.53959 37.2511 9.7297 37.9384 10.1099C38.6258 10.4901 39.1844 11.064 39.6176 11.8303H39.6164ZM38.6222 14.5992C38.6222 13.4704 38.3213 12.5908 37.7195 11.959C37.1176 11.3285 36.3237 11.012 35.3378 11.012C34.3519 11.012 33.558 11.3285 32.9561 11.959C32.3543 12.5919 32.133 13.4716 32.133 14.5992C32.133 15.7269 32.3543 16.6077 32.9561 17.2395C33.558 17.8723 34.3507 18.1864 35.3378 18.1864C36.3249 18.1864 37.1176 17.87 37.7195 17.2395C38.3213 16.6089 38.6222 15.7269 38.6222 14.5992ZM49.1372 16.3314H50.8703C50.6396 17.2276 50.1677 18.0034 49.4569 18.6587C48.7449 19.3152 47.7263 19.6423 46.3996 19.6423C45.402 19.6423 44.5238 19.4369 43.7638 19.0259C43.0039 18.615 42.4172 18.0305 42.0027 17.2689C41.5883 16.5086 41.3822 15.6135 41.3822 14.5827C41.3822 13.5519 41.5836 12.6569 41.984 11.8964C42.3845 11.136 42.9477 10.5503 43.6713 10.1395C44.395 9.72855 45.2427 9.52305 46.2158 9.52305C47.1888 9.52305 47.9955 9.72616 48.67 10.13C49.3457 10.535 49.8491 11.0723 50.1841 11.7394C50.5189 12.4089 50.6852 13.1409 50.6852 13.938V15.042H43.114C43.1736 15.9985 43.4945 16.7601 44.0718 17.3232C44.649 17.8877 45.4254 18.1699 46.3985 18.1699C47.1888 18.1699 47.7953 18.0081 48.2146 17.6822C48.6337 17.3563 48.9405 16.9065 49.1361 16.3291L49.1372 16.3314ZM43.08 13.664H48.8094C48.8094 12.8304 48.5963 12.1763 48.1701 11.704C47.7438 11.2328 47.0753 10.9955 46.1631 10.9955C45.3118 10.9955 44.6151 11.2257 44.0741 11.6863C43.5331 12.1456 43.2018 12.8056 43.08 13.664ZM69.2363 19.3684H70.8791V6.12128H69.2363V19.3695V19.3684ZM92.3245 8.75676H94.243V6.68569H92.3245V8.75676ZM99.4074 17.9432C99.1091 17.9739 98.9286 17.9892 98.8693 17.9892C98.7848 17.9892 98.7155 17.9644 98.6678 17.9148C98.6194 17.8664 98.5941 17.7991 98.5941 17.7117C98.5941 17.6515 98.61 17.4697 98.6411 17.1686C98.67 16.8687 98.6866 16.4046 98.6866 15.78V11.2021H101.028L100.567 9.80056H98.6873V7.22412H97.0462V9.79941H95.26V11.201H97.0462V16.2381C97.0462 17.2938 97.3026 18.0789 97.8126 18.5938C98.3233 19.1086 99.1019 19.3672 100.149 19.3672H101.426V17.896H100.787C100.167 17.896 99.7072 17.9113 99.4089 17.942L99.4074 17.9432ZM109.331 9.80056L106.612 17.8286C106.576 17.9278 106.519 18.0565 106.333 18.0565C106.147 18.0565 106.088 17.9278 106.051 17.8286L103.332 9.80056H101.658L104.807 19.3684H105.92C105.993 19.3684 106.048 19.3755 106.086 19.3872C106.122 19.3991 106.152 19.4298 106.177 19.4793C106.225 19.5526 106.219 19.6635 106.158 19.81L105.647 21.208C105.574 21.3922 105.434 21.4843 105.229 21.4843C105.155 21.4843 104.985 21.4689 104.718 21.4382C104.45 21.4075 104.105 21.3922 103.678 21.3922H102.346V22.8634H104.097C105.119 22.8634 105.734 22.6887 106.264 22.3392C106.793 21.9897 107.203 21.3733 107.495 20.4901L110.896 10.1678V9.80056H109.333H109.331ZM86.7678 13.3701L84.1949 9.80056H82.3885V10.1678L85.4713 14.3075L81.7124 18.9999V19.3672H83.5557L86.5482 15.5214L89.3399 19.3672H91.1103V18.9999L87.8433 14.5839L91.3848 10.1867V9.80056H89.5415L86.7685 13.3701H86.7678ZM92.4993 19.3684H94.1418V9.80172H92.4993V19.3695V19.3684ZM81.69 16.3314C81.4581 17.2276 80.9879 18.0034 80.2772 18.6587C79.565 19.3152 78.5465 19.6423 77.2196 19.6423C76.2221 19.6423 75.3438 19.4369 74.5839 19.0259C73.8226 18.615 73.2376 18.0305 72.8229 17.2689C72.4095 16.5086 72.2034 15.6135 72.2034 14.5827C72.2034 13.5519 72.4048 12.6569 72.8053 11.8964C73.2072 11.136 73.7692 10.5503 74.4929 10.1395C75.216 9.72855 76.0639 9.52305 77.0383 9.52305C78.0127 9.52305 78.8181 9.72616 79.4935 10.13C80.1681 10.535 80.673 11.0723 81.0074 11.7394C81.3426 12.4089 81.5087 13.1409 81.5087 13.938V15.042H73.9368C73.9974 15.9985 74.3167 16.7601 74.8945 17.3232C75.4716 17.8877 76.2481 18.1699 77.2211 18.1699C78.0113 18.1699 78.618 18.0081 79.037 17.6822C79.4559 17.3563 79.7629 16.9065 79.9572 16.3291H81.6914L81.69 16.3314ZM73.9411 13.664H79.6704C79.6704 12.8304 79.4573 12.1763 79.0326 11.704C78.6057 11.2328 77.9376 10.9955 77.0253 10.9955C76.1737 10.9955 75.4774 11.2257 74.9364 11.6863C74.3954 12.1456 74.0632 12.8056 73.9425 13.664H73.9411Z" fill="#BCBFC2"/>
</svg>
