<svg width="150" height="29" viewBox="0 0 150 29" fill="none" xmlns="http://www.w3.org/2000/svg">
<path d="M24.8985 14.5003C24.8985 16.7998 24.2161 19.0475 22.9378 20.9589C21.6594 22.8703 19.8426 24.3593 17.7174 25.2375C15.5922 26.1156 13.2542 26.3433 10.9995 25.8918C8.7448 25.4402 6.6748 24.3297 5.05164 22.701C3.42848 21.0722 2.32518 18.9983 1.88145 16.7421C1.43772 14.4858 1.67352 12.1487 2.559 10.0265C3.44447 7.90436 4.93979 6.09271 6.85559 4.82097C8.77138 3.54924 11.0215 2.87463 13.3209 2.88258C16.3952 2.8932 19.3399 4.12189 21.51 6.29948C23.68 8.47708 24.8985 11.426 24.8985 14.5003ZM17.5984 6.35733C17.5715 6.33776 17.5433 6.32011 17.5139 6.30452C16.2776 5.66321 14.9117 5.31144 13.5195 5.27583C12.8651 5.25775 12.2107 5.31087 11.5677 5.43425C10.6053 5.6154 9.67814 5.94988 8.82172 6.42492L8.67808 6.51575C8.64217 6.53265 8.60626 6.54533 8.57458 6.56434C8.37813 6.69108 8.18169 6.8157 7.98735 6.94667C7.67595 7.1582 7.38017 7.39186 7.1023 7.64584C6.62842 8.07498 6.19951 8.5513 5.82223 9.06743C5.76309 9.14769 5.71239 9.2343 5.65747 9.31668C5.63001 9.3547 5.59833 9.39061 5.57298 9.43074C4.49701 11.0536 3.96783 12.9779 4.06268 14.9228C4.08717 15.5001 4.1671 16.0738 4.30137 16.6358C4.55085 17.6899 4.98571 18.6912 5.58566 19.5931C5.61523 19.6353 5.65114 19.6755 5.68282 19.7156C5.71451 19.7557 5.71873 19.7832 5.73985 19.8149C5.95088 20.1158 6.18089 20.4029 6.42847 20.6746C6.81924 21.1069 7.24917 21.5022 7.71275 21.8554C8.95755 22.8017 10.4233 23.4146 11.9712 23.636C12.0599 23.6487 12.1507 23.6529 12.2394 23.6614C12.4273 23.6989 12.6182 23.7187 12.8098 23.7205C13.303 23.7448 13.7973 23.7307 14.2884 23.6783C14.7817 23.6239 15.2698 23.5299 15.748 23.3974C17.5958 22.8817 19.2375 21.8043 20.4459 20.3144C21.6543 18.8244 22.3696 16.9956 22.4926 15.0812C22.5335 14.4999 22.5151 13.916 22.4377 13.3385C22.363 12.7519 22.2314 12.1739 22.0448 11.6128C21.8962 11.1636 21.7118 10.7271 21.4935 10.3074C21.466 10.2524 21.4407 10.1954 21.4111 10.1426C21.2215 9.79426 21.0099 9.45842 20.7774 9.13713C20.519 8.77709 20.2368 8.43483 19.9325 8.11266C19.7089 7.8781 19.4719 7.65665 19.2227 7.4494C18.797 7.08818 18.3388 6.76715 17.854 6.49041C17.7695 6.43971 17.6829 6.39958 17.5984 6.35733Z" fill="#B8B8BC"/>
<path d="M12.2415 23.6571C12.1528 23.6571 12.0619 23.6445 11.9732 23.6318C10.4253 23.4103 8.9596 22.7974 7.7148 21.8511C7.25122 21.4979 6.82129 21.1027 6.43052 20.6703C6.18293 20.3987 5.95293 20.1115 5.7419 19.8106C5.72078 19.7789 5.70388 19.7451 5.68487 19.7113H5.78415C5.85939 19.7225 5.93616 19.7171 6.00911 19.6956C6.08207 19.6741 6.14946 19.6369 6.20661 19.5867C6.28271 19.5222 6.35336 19.4516 6.41784 19.3755C6.53044 19.2325 6.62153 19.0738 6.68822 18.9044C6.87771 18.4554 7.01246 17.9852 7.08956 17.504C7.13392 17.2505 7.16349 16.9949 7.20573 16.7414C7.2964 16.199 7.474 15.6747 7.7317 15.1889C7.90686 14.8504 8.14073 14.5457 8.42243 14.289C8.68681 14.0528 9.00528 13.8852 9.34973 13.8011C9.61631 13.7455 9.88967 13.7298 10.1609 13.7546C10.3235 13.7652 10.4862 13.7757 10.6467 13.7715C10.9052 13.7651 11.1614 13.7209 11.4071 13.6405C11.6431 13.5667 11.8599 13.442 12.0424 13.2752C12.2249 13.1084 12.3686 12.9036 12.4633 12.6752C12.5779 12.3975 12.6402 12.1011 12.6471 11.8007C12.6509 11.6527 12.6309 11.5051 12.5879 11.3635C12.5604 11.2705 12.5309 11.1797 12.4971 11.091C12.3712 10.7618 12.1624 10.4708 11.8908 10.2461C11.719 10.1069 11.5149 10.0132 11.2973 9.97357C11.0765 9.93302 10.8496 9.94022 10.6319 9.9947C10.4038 10.0475 10.1778 10.113 9.94963 10.1616C9.59171 10.2478 9.22199 10.2742 8.85545 10.2397C8.55361 10.2085 8.26377 10.1048 8.01053 9.93767C7.85862 9.83244 7.71715 9.7129 7.58806 9.58068C7.52173 9.5162 7.45116 9.45621 7.37683 9.40114C7.15375 9.22685 6.88225 9.12577 6.5995 9.11175C6.42275 9.10165 6.24583 9.12826 6.07987 9.18991C5.94046 9.24272 5.79893 9.28074 5.65741 9.3251C5.71233 9.24271 5.76303 9.15611 5.82217 9.07584C6.19945 8.55972 6.62835 8.0834 7.10223 7.65426C7.38388 7.39688 7.68392 7.16038 7.99996 6.94663C8.1943 6.81567 8.39074 6.69104 8.58719 6.5643C8.61887 6.54529 8.65478 6.53262 8.69069 6.51572C8.72594 6.52958 8.7619 6.54157 8.79842 6.55163C9.64334 6.77976 10.4988 6.99099 11.3522 7.18532C12.2774 7.39655 13.2068 7.60779 14.1405 7.77043C14.5002 7.8457 14.8671 7.88112 15.2346 7.87605C15.5269 7.87234 15.8171 7.82681 16.0965 7.74086C16.6335 7.56907 17.0961 7.21971 17.4082 6.75019C17.489 6.63219 17.553 6.50351 17.5983 6.36786C17.6828 6.41011 17.7694 6.45024 17.8518 6.49671C18.3367 6.77345 18.7949 7.09449 19.2206 7.4557C19.4697 7.66295 19.7067 7.88441 19.9303 8.11897C20.2346 8.44114 20.5169 8.7834 20.7752 9.14344C21.0077 9.46473 21.2194 9.80057 21.4089 10.1489C21.4385 10.2017 21.4638 10.2587 21.4913 10.3137H21.392C20.8885 10.3224 20.3936 10.446 19.9451 10.6749C19.5088 10.8904 19.1106 11.1758 18.7664 11.5198C18.4745 11.8037 18.242 12.1428 18.0824 12.5174C17.9229 12.892 17.8394 13.2946 17.837 13.7018C17.8352 13.9262 17.8472 14.1506 17.8729 14.3735C17.8898 14.5679 17.9025 14.7643 17.9004 14.9607C17.8965 15.1416 17.8831 15.3221 17.8602 15.5015C17.8223 15.8588 17.7207 16.2065 17.5603 16.5281C17.303 17.0621 16.8487 17.4755 16.2929 17.6814C15.9066 17.8199 15.5114 17.9321 15.11 18.0173C14.8544 18.0764 14.5988 18.1313 14.3432 18.1926C13.9412 18.2861 13.5702 18.4818 13.266 18.7608C12.9515 19.0523 12.6683 19.3758 12.421 19.7261C12.1138 20.1623 11.9292 20.6729 11.8866 21.2047C11.8468 21.5947 11.8589 21.9882 11.9225 22.375C11.9783 22.7876 12.0796 23.1928 12.2246 23.5832C12.2326 23.6072 12.2382 23.632 12.2415 23.6571Z" fill="#B8B8BC"/>
<path d="M12.2404 23.657C12.2372 23.6319 12.2315 23.6071 12.2235 23.5831C12.0722 23.1907 11.9652 22.7826 11.9046 22.3664C11.841 21.9796 11.8289 21.5861 11.8687 21.1962C11.9113 20.6643 12.0958 20.1537 12.4031 19.7176C12.6504 19.3673 12.9336 19.0437 13.248 18.7522C13.5561 18.4747 13.9309 18.2818 14.3359 18.1925C14.5914 18.1312 14.847 18.0763 15.1026 18.0171C15.504 17.932 15.8992 17.8198 16.2855 17.6813C16.8413 17.4754 17.2956 17.0619 17.5529 16.528C17.7134 16.2064 17.815 15.8587 17.8529 15.5014C17.8757 15.322 17.8891 15.1415 17.893 14.9606C17.893 14.7642 17.893 14.5677 17.8655 14.3734C17.8398 14.1504 17.8279 13.9261 17.8296 13.7017C17.8337 13.2936 17.9191 12.8905 18.0809 12.5158C18.2426 12.1411 18.4775 11.8025 18.7717 11.5197C19.1159 11.1757 19.5141 10.8903 19.9504 10.6747C20.3989 10.4458 20.8938 10.3223 21.3973 10.3135H21.4966C21.7149 10.7332 21.8993 11.1698 22.0479 11.6189C22.2345 12.1801 22.3661 12.7581 22.4408 13.3447C22.5182 13.9222 22.5366 14.5061 22.4957 15.0874C22.37 17.001 21.6526 18.8283 20.4427 20.3163C19.2328 21.8043 17.5904 22.8794 15.7427 23.393C15.2644 23.5255 14.7763 23.6195 14.283 23.6739C13.792 23.7263 13.2977 23.7404 12.8044 23.7162C12.615 23.714 12.4262 23.6942 12.2404 23.657Z" fill="#B8B8BC" fill-opacity="0.2"/>
<path d="M5.65886 9.31657C5.80039 9.27221 5.94191 9.23419 6.08133 9.18138C6.24728 9.11973 6.42421 9.09312 6.60096 9.10322C6.8837 9.11724 7.15521 9.21832 7.37829 9.39261C7.45262 9.44769 7.52319 9.50767 7.58952 9.57216C7.71861 9.70438 7.86008 9.82392 8.01198 9.92914C8.26522 10.0963 8.55507 10.1999 8.8569 10.2312C9.22344 10.2657 9.59316 10.2393 9.95108 10.153C10.1792 10.1045 10.4052 10.039 10.6334 9.98617C10.8511 9.9317 11.078 9.92449 11.2987 9.96505C11.5163 10.0046 11.7204 10.0983 11.8923 10.2375C12.1638 10.4622 12.3726 10.7533 12.4985 11.0825C12.5323 11.1712 12.5619 11.262 12.5894 11.3549C12.6325 11.4994 12.6518 11.65 12.6464 11.8006C12.6391 12.1018 12.5761 12.399 12.4605 12.6773C12.3658 12.9056 12.2221 13.1104 12.0396 13.2772C11.8572 13.444 11.6403 13.5687 11.4044 13.6426C11.1586 13.723 10.9024 13.7671 10.6439 13.7735C10.4834 13.7735 10.3207 13.7735 10.1581 13.7566C9.8869 13.7318 9.61354 13.7475 9.34696 13.8031C9.00346 13.8869 8.68577 14.0538 8.42177 14.2889C8.13761 14.5457 7.90155 14.8512 7.72471 15.1909C7.46701 15.6768 7.2894 16.201 7.19874 16.7435C7.15649 16.9969 7.12692 17.2525 7.08256 17.506C7.00546 17.9872 6.87071 18.4574 6.68122 18.9065C6.61454 19.0758 6.52345 19.2345 6.41085 19.3775C6.34637 19.4536 6.27572 19.5243 6.19962 19.5887C6.14247 19.6389 6.07508 19.6761 6.00212 19.6976C5.92916 19.7191 5.8524 19.7245 5.77715 19.7134H5.67788C5.64619 19.6732 5.61028 19.6331 5.58071 19.5909C4.98076 18.689 4.5459 17.6877 4.29642 16.6336C4.16442 16.072 4.08661 15.4991 4.06407 14.9226C3.96922 12.9778 4.4984 11.0535 5.57437 9.43063C5.59972 9.3905 5.6314 9.35459 5.65886 9.31657Z" fill="#B8B8BC" fill-opacity="0.2"/>
<path d="M17.5979 6.35711C17.5526 6.49277 17.4886 6.62145 17.4078 6.73944C17.0974 7.21291 16.6346 7.56616 16.0961 7.74068C15.8142 7.83337 15.5203 7.8846 15.2237 7.89276C14.8562 7.89783 14.4893 7.86241 14.1295 7.78715C13.1959 7.61816 12.2665 7.41749 11.3413 7.20204C10.4963 7.00137 9.63663 6.79014 8.78748 6.56834C8.75096 6.55828 8.715 6.5463 8.67975 6.53244L8.82339 6.44161C9.67981 5.96656 10.6069 5.63208 11.5694 5.45093C12.2123 5.32755 12.8668 5.27443 13.5212 5.29251C14.9085 5.32448 16.2705 5.67041 17.505 6.30431C17.5373 6.31953 17.5683 6.33719 17.5979 6.35711Z" fill="#B8B8BC" fill-opacity="0.2"/>
<path d="M34.9212 21.1914C34.3825 21.1914 33.9714 21.0496 33.6879 20.7661C33.4044 20.4826 33.2626 20.0786 33.2626 19.5541V12.0054C33.2626 11.4809 33.3973 11.0839 33.6666 10.8146C33.9501 10.5311 34.34 10.3893 34.8361 10.3893C35.3465 10.3893 35.7363 10.5311 36.0056 10.8146C36.275 11.0839 36.4097 11.4809 36.4097 12.0054V13.1111H36.197C36.3671 12.2605 36.7428 11.6014 37.324 11.1336C37.9052 10.6657 38.6565 10.4035 39.578 10.3468C39.9324 10.3184 40.2017 10.4106 40.386 10.6232C40.5845 10.8217 40.6908 11.1548 40.705 11.6226C40.7333 12.0621 40.6412 12.4094 40.4285 12.6646C40.2301 12.9197 39.8899 13.0757 39.4079 13.1324L38.9188 13.1749C38.1108 13.2458 37.5083 13.4797 37.1114 13.8766C36.7286 14.2735 36.5372 14.8476 36.5372 15.599V19.5541C36.5372 20.0786 36.3955 20.4826 36.112 20.7661C35.8426 21.0496 35.4457 21.1914 34.9212 21.1914ZM46.8358 21.2339C45.6025 21.2339 44.5393 21.0142 43.6462 20.5747C42.7673 20.1211 42.0868 19.4903 41.6049 18.6822C41.1371 17.86 40.9032 16.8961 40.9032 15.7903C40.9032 14.713 41.13 13.7703 41.5836 12.9622C42.0372 12.14 42.6681 11.5021 43.4761 11.0485C44.2983 10.5807 45.2268 10.3468 46.2617 10.3468C47.013 10.3468 47.6934 10.4744 48.303 10.7295C48.9126 10.9705 49.4371 11.3249 49.8765 11.7927C50.316 12.2464 50.6491 12.8063 50.8759 13.4726C51.1027 14.1247 51.2161 14.8547 51.2161 15.6628C51.2161 15.9321 51.1311 16.1377 50.961 16.2794C50.7909 16.407 50.5428 16.4708 50.2167 16.4708H43.5399V14.8122H48.8984L48.5582 15.1099C48.5582 14.5287 48.4731 14.0467 48.303 13.664C48.1329 13.267 47.8848 12.9693 47.5588 12.7709C47.2469 12.5724 46.857 12.4732 46.3892 12.4732C45.8647 12.4732 45.4182 12.5937 45.0496 12.8347C44.681 13.0757 44.3975 13.423 44.1991 13.8766C44.0006 14.3302 43.9014 14.876 43.9014 15.5139V15.684C43.9014 16.7614 44.1494 17.5552 44.6456 18.0656C45.1559 18.5759 45.9073 18.8311 46.8996 18.8311C47.2398 18.8311 47.6296 18.7886 48.0691 18.7035C48.5085 18.6184 48.9196 18.4838 49.3024 18.2995C49.6284 18.1435 49.919 18.0939 50.1742 18.1506C50.4294 18.1932 50.6278 18.3066 50.7696 18.4909C50.9114 18.6751 50.9893 18.8878 51.0035 19.1288C51.0319 19.3698 50.9822 19.6108 50.8547 19.8517C50.7271 20.0786 50.5144 20.2699 50.2167 20.4259C49.7348 20.6952 49.189 20.8937 48.5794 21.0213C47.984 21.163 47.4028 21.2339 46.8358 21.2339ZM54.317 21.1914C53.7925 21.1914 53.3885 21.0496 53.105 20.7661C52.8356 20.4826 52.701 20.0786 52.701 19.5541V12.0054C52.701 11.4809 52.8356 11.0839 53.105 10.8146C53.3885 10.5311 53.7783 10.3893 54.2745 10.3893C54.7848 10.3893 55.1747 10.5311 55.444 10.8146C55.7133 11.0839 55.848 11.4809 55.848 12.0054V13.3663L55.6141 12.5157C55.8976 11.8636 56.3371 11.3391 56.9325 10.9422C57.5279 10.5452 58.2296 10.3468 59.0376 10.3468C59.8456 10.3468 60.519 10.5382 61.0577 10.9209C61.5964 11.3037 61.9791 11.892 62.2059 12.6858H61.9082C62.2201 11.9628 62.695 11.3958 63.3329 10.9847C63.985 10.5594 64.7292 10.3468 65.5656 10.3468C66.3736 10.3468 67.0328 10.5098 67.5432 10.8359C68.0677 11.1477 68.4575 11.6297 68.7127 12.2818C68.9678 12.9197 69.0954 13.7348 69.0954 14.7272V19.5541C69.0954 20.0786 68.9537 20.4826 68.6701 20.7661C68.4008 21.0496 68.011 21.1914 67.5006 21.1914C66.9761 21.1914 66.5721 21.0496 66.2886 20.7661C66.0192 20.4826 65.8846 20.0786 65.8846 19.5541V14.8335C65.8846 14.1388 65.7712 13.6356 65.5444 13.3237C65.3317 12.9977 64.9631 12.8347 64.4386 12.8347C63.8291 12.8347 63.3542 13.0473 63.014 13.4726C62.6737 13.8979 62.5036 14.5003 62.5036 15.28V19.5541C62.5036 20.0786 62.3619 20.4826 62.0783 20.7661C61.809 21.0496 61.4192 21.1914 60.9088 21.1914C60.3985 21.1914 60.0016 21.0496 59.718 20.7661C59.4345 20.4826 59.2928 20.0786 59.2928 19.5541V14.8335C59.2928 14.1388 59.1794 13.6356 58.9525 13.3237C58.7399 12.9977 58.3713 12.8347 57.8468 12.8347C57.2373 12.8347 56.7624 13.0473 56.4221 13.4726C56.0819 13.8979 55.9118 14.5003 55.9118 15.28V19.5541C55.9118 20.6456 55.3802 21.1914 54.317 21.1914ZM76.1481 21.2339C75.0282 21.2339 74.05 21.0142 73.2136 20.5747C72.3914 20.1353 71.7535 19.5044 71.2999 18.6822C70.8463 17.86 70.6194 16.889 70.6194 15.7691C70.6194 14.9327 70.747 14.1814 71.0022 13.5151C71.2574 12.8488 71.6259 12.2818 72.1079 11.814C72.6041 11.332 73.1924 10.9705 73.8728 10.7295C74.5533 10.4744 75.3117 10.3468 76.1481 10.3468C77.268 10.3468 78.239 10.5665 79.0612 11.006C79.8976 11.4454 80.5426 12.0692 80.9962 12.8772C81.464 13.6852 81.6979 14.6492 81.6979 15.7691C81.6979 16.6196 81.5633 17.378 81.2939 18.0443C81.0388 18.7106 80.6702 19.2847 80.1882 19.7667C79.7062 20.2487 79.1179 20.6172 78.4233 20.8724C77.7429 21.1134 76.9844 21.2339 76.1481 21.2339ZM76.1481 18.8311C76.6159 18.8311 77.0199 18.7177 77.3601 18.4909C77.7003 18.264 77.9697 17.9309 78.1681 17.4915C78.3666 17.0378 78.4658 16.4637 78.4658 15.7691C78.4658 14.7342 78.2532 13.9758 77.8279 13.4938C77.4026 12.9977 76.8427 12.7496 76.1481 12.7496C75.6944 12.7496 75.2904 12.8559 74.936 13.0686C74.5958 13.2812 74.3265 13.6143 74.128 14.068C73.9437 14.5074 73.8516 15.0745 73.8516 15.7691C73.8516 16.8039 74.0642 17.5765 74.4895 18.0868C74.9148 18.583 75.4676 18.8311 76.1481 18.8311ZM88.2469 21.2339C87.2688 21.2339 86.4465 21.0709 85.7803 20.7448C85.1282 20.4188 84.6391 19.9439 84.3131 19.3202C84.0012 18.6964 83.8453 17.9096 83.8453 16.9599V12.9622H82.9522C82.5553 12.9622 82.2434 12.8559 82.0166 12.6433C81.8039 12.4306 81.6976 12.14 81.6976 11.7715C81.6976 11.3745 81.8039 11.0768 82.0166 10.8784C82.2434 10.6657 82.5553 10.5594 82.9522 10.5594H83.8453V8.94337C83.8453 8.40468 83.987 8.00067 84.2705 7.73133C84.5541 7.44781 84.951 7.30605 85.4613 7.30605C85.9858 7.30605 86.3828 7.44781 86.6521 7.73133C86.9214 8.00067 87.0561 8.40468 87.0561 8.94337V10.5594H89.0762C89.4731 10.5594 89.7779 10.6657 89.9905 10.8784C90.2032 11.0768 90.3095 11.3745 90.3095 11.7715C90.3095 12.14 90.2032 12.4306 89.9905 12.6433C89.7779 12.8559 89.4731 12.9622 89.0762 12.9622H87.0561V16.8323C87.0561 17.4277 87.1908 17.8742 87.4601 18.1719C87.7436 18.4696 88.1902 18.6184 88.7998 18.6184C89.0124 18.6184 89.2109 18.5972 89.3951 18.5547C89.5794 18.5121 89.7495 18.4838 89.9055 18.4696C90.1039 18.4554 90.267 18.5192 90.3945 18.661C90.5221 18.7886 90.5859 19.0792 90.5859 19.5328C90.5859 19.873 90.5292 20.1707 90.4158 20.4259C90.3024 20.681 90.1039 20.8653 89.8204 20.9787C89.6361 21.0496 89.381 21.1063 89.0549 21.1488C88.743 21.2056 88.4737 21.2339 88.2469 21.2339ZM96.6124 21.2339C95.3791 21.2339 94.3159 21.0142 93.4228 20.5747C92.5439 20.1211 91.8635 19.4903 91.3815 18.6822C90.9137 17.86 90.6798 16.8961 90.6798 15.7903C90.6798 14.713 90.9066 13.7703 91.3602 12.9622C91.8138 12.14 92.4447 11.5021 93.2527 11.0485C94.0749 10.5807 95.0034 10.3468 96.0383 10.3468C96.7896 10.3468 97.47 10.4744 98.0796 10.7295C98.6892 10.9705 99.2137 11.3249 99.6531 11.7927C100.093 12.2464 100.426 12.8063 100.653 13.4726C100.879 14.1247 100.993 14.8547 100.993 15.6628C100.993 15.9321 100.908 16.1377 100.738 16.2794C100.567 16.407 100.319 16.4708 99.9934 16.4708H93.3165V14.8122H98.675L98.3348 15.1099C98.3348 14.5287 98.2497 14.0467 98.0796 13.664C97.9095 13.267 97.6614 12.9693 97.3354 12.7709C97.0235 12.5724 96.6337 12.4732 96.1659 12.4732C95.6414 12.4732 95.1948 12.5937 94.8262 12.8347C94.4577 13.0757 94.1741 13.423 93.9757 13.8766C93.7772 14.3302 93.678 14.876 93.678 15.5139V15.684C93.678 16.7614 93.9261 17.5552 94.4222 18.0656C94.9326 18.5759 95.6839 18.8311 96.6762 18.8311C97.0164 18.8311 97.4063 18.7886 97.8457 18.7035C98.2852 18.6184 98.6963 18.4838 99.079 18.2995C99.4051 18.1435 99.6957 18.0939 99.9508 18.1506C100.206 18.1932 100.404 18.3066 100.546 18.4909C100.688 18.6751 100.766 18.8878 100.78 19.1288C100.808 19.3698 100.759 19.6108 100.631 19.8517C100.504 20.0786 100.291 20.2699 99.9934 20.4259C99.5114 20.6952 98.9656 20.8937 98.356 21.0213C97.7607 21.163 97.1794 21.2339 96.6124 21.2339ZM104.434 21C103.881 21 103.456 20.8512 103.158 20.5535C102.86 20.2558 102.711 19.8305 102.711 19.2776V7.73133C102.711 7.17847 102.86 6.75319 103.158 6.45549C103.456 6.1578 103.881 6.00895 104.434 6.00895H109.58C110.643 6.00895 111.55 6.16489 112.302 6.47676C113.053 6.78863 113.62 7.23517 114.003 7.81638C114.4 8.3976 114.598 9.09222 114.598 9.90025C114.598 10.7933 114.343 11.5517 113.833 12.1755C113.322 12.7992 112.62 13.2174 111.727 13.4301V13.0898C112.762 13.2741 113.563 13.6852 114.13 14.3231C114.711 14.9469 115.002 15.762 115.002 16.7685C115.002 18.101 114.541 19.143 113.62 19.8943C112.698 20.6314 111.43 21 109.814 21H104.434ZM105.859 18.5547H109.367C110.218 18.5547 110.841 18.3916 111.238 18.0656C111.635 17.7254 111.834 17.2292 111.834 16.5771C111.834 15.925 111.635 15.4359 111.238 15.1099C110.841 14.7839 110.218 14.6208 109.367 14.6208H105.859V18.5547ZM105.859 12.1755H109.006C109.828 12.1755 110.437 12.0195 110.834 11.7077C111.231 11.3958 111.43 10.928 111.43 10.3043C111.43 9.69469 111.231 9.23398 110.834 8.92211C110.437 8.61024 109.828 8.4543 109.006 8.4543H105.859V12.1755ZM120.325 21.2339C119.559 21.2339 118.872 21.0851 118.262 20.7874C117.652 20.4897 117.178 20.0857 116.837 19.5753C116.497 19.065 116.327 18.4909 116.327 17.8529C116.327 17.0874 116.525 16.485 116.922 16.0455C117.319 15.5919 117.964 15.2729 118.857 15.0886C119.751 14.8902 120.934 14.7909 122.408 14.7909H123.535V16.4495H122.43C121.707 16.4495 121.118 16.4921 120.665 16.5771C120.225 16.648 119.906 16.7756 119.708 16.9599C119.524 17.1441 119.432 17.3993 119.432 17.7254C119.432 18.1223 119.566 18.4483 119.836 18.7035C120.119 18.9587 120.523 19.0862 121.048 19.0862C121.459 19.0862 121.82 18.9941 122.132 18.8098C122.458 18.6114 122.713 18.3491 122.898 18.0231C123.082 17.6828 123.174 17.3001 123.174 16.8748V14.4295C123.174 13.8057 123.032 13.3663 122.749 13.1111C122.465 12.8418 121.983 12.7071 121.303 12.7071C120.92 12.7071 120.502 12.7567 120.048 12.8559C119.609 12.941 119.12 13.0898 118.581 13.3025C118.269 13.4442 117.993 13.4797 117.752 13.4088C117.511 13.3237 117.326 13.182 117.199 12.9835C117.071 12.7709 117.007 12.5441 117.007 12.3031C117.007 12.0479 117.078 11.8069 117.22 11.5801C117.362 11.3391 117.596 11.1619 117.922 11.0485C118.588 10.7792 119.212 10.5949 119.793 10.4956C120.388 10.3964 120.934 10.3468 121.43 10.3468C122.522 10.3468 123.415 10.5098 124.11 10.8359C124.818 11.1477 125.35 11.6368 125.704 12.3031C126.059 12.9552 126.236 13.7986 126.236 14.8335V19.5541C126.236 20.0786 126.108 20.4826 125.853 20.7661C125.598 21.0496 125.23 21.1914 124.748 21.1914C124.266 21.1914 123.89 21.0496 123.621 20.7661C123.365 20.4826 123.238 20.0786 123.238 19.5541V18.7673L123.387 18.8949C123.302 19.3769 123.117 19.795 122.834 20.1494C122.564 20.4897 122.217 20.759 121.792 20.9575C121.367 21.1418 120.877 21.2339 120.325 21.2339ZM132.204 21.2339C131.58 21.2339 130.935 21.1772 130.268 21.0638C129.616 20.9504 129.021 20.759 128.482 20.4897C128.199 20.3479 127.993 20.1707 127.866 19.9581C127.752 19.7313 127.703 19.5044 127.717 19.2776C127.731 19.0508 127.802 18.8453 127.929 18.661C128.071 18.4767 128.248 18.3562 128.461 18.2995C128.688 18.2286 128.936 18.2499 129.205 18.3633C129.787 18.6043 130.318 18.7744 130.8 18.8736C131.282 18.9728 131.757 19.0225 132.225 19.0225C132.834 19.0225 133.274 18.9303 133.543 18.746C133.827 18.5476 133.968 18.2924 133.968 17.9805C133.968 17.697 133.876 17.4844 133.692 17.3426C133.508 17.2009 133.238 17.1016 132.884 17.0449L130.651 16.6409C129.772 16.485 129.092 16.166 128.61 15.684C128.142 15.1879 127.908 14.557 127.908 13.7915C127.908 13.0827 128.107 12.4732 128.504 11.9628C128.901 11.4383 129.446 11.0414 130.141 10.7721C130.85 10.4885 131.651 10.3468 132.544 10.3468C133.182 10.3468 133.77 10.4035 134.309 10.5169C134.847 10.6303 135.365 10.8146 135.861 11.0698C136.116 11.1973 136.293 11.3675 136.393 11.5801C136.506 11.7927 136.541 12.0125 136.499 12.2393C136.47 12.4661 136.385 12.6716 136.244 12.8559C136.102 13.0402 135.918 13.1607 135.691 13.2174C135.478 13.2741 135.23 13.2458 134.947 13.1324C134.493 12.9197 134.075 12.7709 133.692 12.6858C133.309 12.5866 132.941 12.537 132.586 12.537C131.948 12.537 131.488 12.6433 131.204 12.8559C130.921 13.0544 130.779 13.3096 130.779 13.6214C130.779 13.8624 130.857 14.068 131.013 14.2381C131.183 14.394 131.438 14.5003 131.778 14.557L134.011 14.9611C134.932 15.117 135.634 15.4289 136.116 15.8967C136.598 16.3503 136.839 16.974 136.839 17.7679C136.839 18.8453 136.414 19.6958 135.563 20.3196C134.727 20.9291 133.607 21.2339 132.204 21.2339ZM143.669 21.2339C142.435 21.2339 141.372 21.0142 140.479 20.5747C139.6 20.1211 138.92 19.4903 138.438 18.6822C137.97 17.86 137.736 16.8961 137.736 15.7903C137.736 14.713 137.963 13.7703 138.417 12.9622C138.87 12.14 139.501 11.5021 140.309 11.0485C141.131 10.5807 142.06 10.3468 143.095 10.3468C143.846 10.3468 144.526 10.4744 145.136 10.7295C145.746 10.9705 146.27 11.3249 146.709 11.7927C147.149 12.2464 147.482 12.8063 147.709 13.4726C147.936 14.1247 148.049 14.8547 148.049 15.6628C148.049 15.9321 147.964 16.1377 147.794 16.2794C147.624 16.407 147.376 16.4708 147.05 16.4708H140.373V14.8122H145.731L145.391 15.1099C145.391 14.5287 145.306 14.0467 145.136 13.664C144.966 13.267 144.718 12.9693 144.392 12.7709C144.08 12.5724 143.69 12.4732 143.222 12.4732C142.698 12.4732 142.251 12.5937 141.883 12.8347C141.514 13.0757 141.23 13.423 141.032 13.8766C140.834 14.3302 140.734 14.876 140.734 15.5139V15.684C140.734 16.7614 140.982 17.5552 141.479 18.0656C141.989 18.5759 142.74 18.8311 143.733 18.8311C144.073 18.8311 144.463 18.7886 144.902 18.7035C145.342 18.6184 145.753 18.4838 146.135 18.2995C146.461 18.1435 146.752 18.0939 147.007 18.1506C147.262 18.1932 147.461 18.3066 147.603 18.4909C147.744 18.6751 147.822 18.8878 147.836 19.1288C147.865 19.3698 147.815 19.6108 147.688 19.8517C147.56 20.0786 147.347 20.2699 147.05 20.4259C146.568 20.6952 146.022 20.8937 145.412 21.0213C144.817 21.163 144.236 21.2339 143.669 21.2339Z" fill="#B8B8BC"/>
</svg>
