<svg width="62" height="21" viewBox="0 0 62 21" fill="none" xmlns="http://www.w3.org/2000/svg">
<g clip-path="url(#clip0_116_47)">
<path d="M44.5081 20.3858C44.3823 20.3858 44.2576 20.361 44.1413 20.3128C44.025 20.2647 43.9194 20.1941 43.8303 20.1051C43.7413 20.0161 43.6707 19.9104 43.6226 19.7941C43.5744 19.6778 43.5496 19.5532 43.5497 19.4273V1.535C43.5496 1.40913 43.5744 1.28449 43.6226 1.1682C43.6707 1.0519 43.7413 0.946235 43.8303 0.857229C43.9194 0.768224 44.025 0.697625 44.1413 0.649463C44.2576 0.601302 44.3823 0.576522 44.5081 0.576538C44.634 0.576505 44.7587 0.601273 44.875 0.649427C44.9913 0.697581 45.097 0.768178 45.186 0.857185C45.275 0.946192 45.3456 1.05186 45.3938 1.16817C45.4419 1.28447 45.4667 1.40912 45.4667 1.535V19.4273C45.4667 19.5532 45.4419 19.6778 45.3938 19.7941C45.3456 19.9104 45.275 20.0161 45.186 20.1051C45.097 20.1941 44.9913 20.2647 44.875 20.3129C44.7587 20.361 44.634 20.3858 44.5081 20.3858ZM60.9007 17.8751C60.9821 17.7791 61.0439 17.6681 61.0825 17.5483C61.1211 17.4285 61.1357 17.3022 61.1254 17.1768C61.1152 17.0513 61.0804 16.9291 61.0229 16.8171C60.9655 16.7051 60.8865 16.6056 60.7906 16.5241C60.6946 16.4426 60.5836 16.3808 60.4638 16.3422C60.3439 16.3037 60.2177 16.2891 60.0923 16.2993C59.9668 16.3095 59.8446 16.3444 59.7326 16.4018C59.6206 16.4593 59.521 16.5383 59.4396 16.6342C58.4491 17.8001 56.9665 18.4688 55.3713 18.4688C52.7288 18.4688 50.5789 16.3189 50.5789 13.6764C50.5789 11.0338 52.7288 8.88405 55.3713 8.88405C57.5186 8.88405 59.3125 10.4268 59.7019 12.4623H53.8374C53.7116 12.4623 53.5869 12.4871 53.4706 12.5352C53.3543 12.5834 53.2486 12.654 53.1596 12.743C53.0706 12.8321 53 12.9377 52.9519 13.0541C52.9037 13.1704 52.8789 13.295 52.879 13.4209C52.8789 13.5468 52.9037 13.6714 52.9519 13.7877C53.0001 13.904 53.0707 14.0097 53.1597 14.0987C53.2487 14.1877 53.3543 14.2583 53.4706 14.3064C53.5869 14.3546 53.7116 14.3794 53.8374 14.3794H60.7387C60.8646 14.3794 60.9892 14.3546 61.1055 14.3065C61.2219 14.2583 61.3275 14.1877 61.4165 14.0987C61.5055 14.0097 61.5761 13.904 61.6243 13.7877C61.6725 13.6714 61.6972 13.5468 61.6972 13.4209V13.293C61.6972 9.80459 58.8595 6.96674 55.371 6.96674C51.6712 6.96674 48.6613 9.97664 48.6613 13.6764C48.6613 17.3761 51.6717 20.3858 55.3713 20.3858C57.53 20.3858 59.5454 19.4705 60.9007 17.8751ZM40.3547 19.4273V13.2926C40.3547 9.80421 37.517 6.96648 34.0286 6.96648C30.3287 6.96648 27.3188 9.97639 27.3188 13.6761C27.3188 17.3759 30.3287 20.3858 34.0286 20.3858C34.1544 20.3858 34.2791 20.361 34.3954 20.3128C34.5117 20.2647 34.6173 20.1941 34.7064 20.1051C34.7954 20.0161 34.866 19.9104 34.9141 19.7941C34.9623 19.6778 34.9871 19.5532 34.987 19.4273C34.9871 19.3014 34.9623 19.1768 34.9142 19.0605C34.866 18.9442 34.7954 18.8385 34.7064 18.7495C34.6174 18.6605 34.5117 18.5899 34.3954 18.5417C34.2791 18.4936 34.1545 18.4688 34.0286 18.4688C31.386 18.4688 29.2361 16.3189 29.2361 13.6764C29.2361 11.0338 31.386 8.88405 34.0286 8.88405C36.4596 8.88405 38.4377 10.8618 38.4377 13.2932V19.4276C38.4377 19.5534 38.4625 19.6781 38.5106 19.7944C38.5588 19.9107 38.6294 20.0164 38.7184 20.1054C38.8074 20.1944 38.9131 20.265 39.0294 20.3131C39.1457 20.3613 39.2703 20.3861 39.3962 20.386C39.6504 20.3859 39.8942 20.2849 40.0739 20.1051C40.2537 19.9253 40.3546 19.6815 40.3547 19.4273ZM11.3408 16.5518C11.3408 15.6163 10.9972 14.3403 9.36014 13.5736C8.3779 13.1135 7.14537 12.9245 5.95342 12.7417C3.16095 12.3135 2.16936 11.9558 2.16936 10.8006C2.16936 9.54216 3.9145 8.88367 5.63853 8.88367C6.72492 8.88367 8.28613 9.10274 9.55557 10.1467C9.65281 10.2266 9.76485 10.2867 9.88529 10.3234C10.0057 10.36 10.1322 10.3726 10.2575 10.3604C10.3828 10.3482 10.5045 10.3114 10.6156 10.2522C10.7267 10.193 10.8251 10.1124 10.905 10.0152C10.985 9.91796 11.045 9.80592 11.0817 9.68548C11.1184 9.56503 11.131 9.43855 11.1188 9.31324C11.1066 9.18793 11.0698 9.06625 11.0106 8.95515C10.9513 8.84405 10.8708 8.74571 10.7736 8.66573C9.06572 7.26103 7.03843 6.9661 5.63878 6.9661C1.93815 6.9661 0.252681 8.95358 0.252681 10.8001C0.252681 11.7419 0.597664 13.0264 2.24091 13.7986C3.22858 14.2627 4.46642 14.4523 5.66343 14.636C8.43871 15.0616 9.4241 15.4148 9.4241 16.5513C9.4241 17.698 8.05517 18.4682 6.01827 18.4682C3.93296 18.4682 2.34369 17.6226 1.58217 17.1184C1.37017 16.9781 1.11113 16.9278 0.862035 16.9785C0.612936 17.0292 0.394162 17.1767 0.253819 17.3886C0.184336 17.4936 0.136209 17.6112 0.112188 17.7348C0.0881663 17.8584 0.0887201 17.9854 0.113818 18.1088C0.138915 18.2321 0.188065 18.3493 0.25846 18.4537C0.328855 18.5581 0.419117 18.6475 0.524091 18.717C2.14901 19.7931 4.1002 20.3858 6.01764 20.3858C9.69488 20.3858 11.3408 18.46 11.3408 16.5518ZM25.2385 17.5568C25.3792 17.345 25.4301 17.0861 25.3799 16.8369C25.3297 16.5877 25.1826 16.3686 24.9709 16.2278C24.7592 16.0871 24.5002 16.0362 24.251 16.0865C24.0018 16.1367 23.7827 16.2838 23.6419 16.4955C22.821 17.7311 21.4472 18.4685 19.9674 18.4685C17.3248 18.4685 15.1749 16.3187 15.1749 13.6761C15.1749 11.0336 17.3248 8.8838 19.9674 8.8838C21.4474 8.8838 22.821 9.62117 23.6419 10.8567C23.7116 10.9616 23.8013 11.0517 23.9058 11.1219C24.0103 11.1921 24.1276 11.241 24.251 11.2658C24.3744 11.2907 24.5015 11.291 24.625 11.2667C24.7486 11.2424 24.8661 11.1941 24.9709 11.1243C25.0758 11.0547 25.1659 10.965 25.2361 10.8605C25.3063 10.7561 25.3552 10.6388 25.38 10.5154C25.4049 10.392 25.4052 10.2649 25.3809 10.1413C25.3566 10.0178 25.3083 9.90031 25.2385 9.79549C24.0614 8.02393 22.0906 6.96636 19.9674 6.96636C16.2676 6.96636 13.2577 9.97626 13.2577 13.6761C13.2577 17.3759 16.2676 20.3858 19.9674 20.3858C22.0909 20.3858 24.0614 19.3282 25.2385 17.5568Z" fill="#BCBFC2"/>
</g>
<defs>
<clipPath id="clip0_116_47">
<rect width="61.8162" height="19.8469" fill="white" transform="translate(9.15527e-05 0.576538)"/>
</clipPath>
</defs>
</svg>
