<svg width="119" height="29" viewBox="0 0 119 29" fill="none" xmlns="http://www.w3.org/2000/svg">
<path d="M28.5834 19.4012C27.3801 20.5317 26.4255 21.431 25.6342 22.1721C23.725 20.391 21.6249 18.7406 19.9292 16.7485C18.4018 14.9548 18.4847 12.704 19.7533 10.7093C20.4467 9.61908 21.4666 8.73984 22.4112 7.68475C23.5115 8.71723 24.4962 9.63918 25.5463 10.6239C25.2724 10.9229 25.0338 11.1917 24.7876 11.4529C23.4059 12.9099 23.3758 14.3946 24.8027 15.8391C25.9658 17.0198 27.2143 18.1176 28.5834 19.4012Z" fill="#B8B8BC"/>
<path d="M9.5291 3.55485C10.4309 4.15022 11.1142 4.81593 11.9282 5.08724C12.9129 5.41633 13.9429 5.19024 14.7216 4.34868C15.8948 3.08006 17.0805 1.82149 18.314 0.500122C19.462 1.58284 20.4065 2.47214 21.3762 3.38654C19.5323 5.24551 17.8467 7.1321 15.9651 8.79261C14.076 10.4581 11.0565 10.2873 9.09701 8.64691C6.68539 6.62968 6.6879 6.63219 8.81063 4.3537C9.06687 4.07988 9.31055 3.79853 9.5291 3.55485Z" fill="#B8B8BC"/>
<path d="M19.1027 25.4454C18.2008 24.85 17.5175 24.1843 16.7036 23.913C15.7189 23.5839 14.6889 23.81 13.9101 24.6515C12.737 25.9202 11.5513 27.1787 10.3178 28.5001C9.16978 27.4174 8.22523 26.5281 7.25555 25.6137C9.09944 23.7547 10.7851 21.8681 12.6666 20.2076C14.5557 18.5421 17.5753 18.7129 19.5348 20.3533C21.9464 22.3705 21.9439 22.368 19.8211 24.6465C19.5649 24.9178 19.3212 25.2017 19.1027 25.4454Z" fill="#B8B8BC"/>
<path d="M2.98503 19.3735C5.38661 16.3137 5.36149 15.859 2.70618 13.1234C2.0254 12.4225 1.28935 11.7693 0.663837 11.0232C0.487989 10.8122 0.46538 10.2294 0.63118 10.0234C1.28935 9.20698 2.04801 8.47093 2.71372 7.76251C4.64553 9.61896 6.70547 11.292 8.37602 13.2892C10.0014 15.2335 9.66473 18.022 7.98664 19.9387C7.36866 20.6446 6.70547 21.3103 5.96188 22.1017C4.94448 21.1671 3.98987 20.2929 2.98503 19.3735Z" fill="#B8B8BC"/>
<path d="M16.9524 17.6603C14.7995 16.4671 12.8802 16.3239 10.7173 17.6955C11.8754 15.4999 11.9934 13.543 10.5716 11.3524C12.7571 12.5934 14.7266 12.7542 17.0152 11.3022C15.6536 13.5204 15.6435 15.4899 16.9524 17.6603Z" fill="#B8B8BC"/>
<path d="M37.0863 22V11.9163H33.4917V9.86225H43.2952V11.9163H39.7006V22H37.0863ZM47.1617 22.1867C46.2903 22.1867 45.5745 21.9793 45.0143 21.5643C44.4541 21.1389 44.0391 20.558 43.7694 19.8214C43.4996 19.0849 43.3648 18.2497 43.3648 17.3161C43.3648 16.3513 43.4996 15.5058 43.7694 14.7796C44.0495 14.0534 44.4696 13.488 45.0298 13.0834C45.59 12.6788 46.2955 12.4765 47.1462 12.4765C47.7997 12.4765 48.334 12.6062 48.749 12.8656C49.1743 13.1145 49.4959 13.4517 49.7138 13.877H50.0872V12.6633H52.4214V22H50.0872V20.7862H49.7138C49.4959 21.1804 49.1795 21.5124 48.7645 21.7821C48.3496 22.0519 47.8153 22.1867 47.1617 22.1867ZM47.8153 20.4128C48.4481 20.4128 48.9513 20.1378 49.3247 19.588C49.7086 19.0278 49.9005 18.2757 49.9005 17.3316C49.9005 16.3772 49.7086 15.6251 49.3247 15.0753C48.9513 14.5254 48.4481 14.2505 47.8153 14.2505C47.2447 14.2505 46.7934 14.5099 46.4615 15.0286C46.1399 15.5369 45.9791 16.3046 45.9791 17.3316C45.9791 18.3587 46.1399 19.1315 46.4615 19.6503C46.7934 20.1586 47.2447 20.4128 47.8153 20.4128ZM55.4906 22C55.2001 21.668 54.9927 21.2946 54.8682 20.8796C54.7541 20.4543 54.697 19.8992 54.697 19.2145V9.55102H57.2179V18.95C57.2179 19.7384 57.3061 20.3557 57.4825 20.8018C57.6588 21.2375 57.8922 21.6058 58.1827 21.9066V22H55.4906ZM63.5212 22.2334C62.0481 22.2334 60.9225 21.7925 60.1444 20.9107C59.3767 20.0289 58.9929 18.8307 58.9929 17.3161C58.9929 16.2994 59.164 15.428 59.5064 14.7018C59.8591 13.9756 60.3674 13.4154 61.0314 13.0212C61.7057 12.627 62.5253 12.4299 63.4901 12.4299C64.8802 12.4299 65.9435 12.85 66.6801 13.6903C67.427 14.5306 67.8005 15.7651 67.8005 17.3939V17.923H61.4515C61.5034 18.7114 61.7057 19.3338 62.0584 19.7903C62.4215 20.2364 62.9091 20.4594 63.5212 20.4594C64.0088 20.4594 64.3978 20.3142 64.6883 20.0237C64.9891 19.7332 65.1862 19.3961 65.2796 19.0122H67.676C67.5827 19.5828 67.3752 20.1119 67.0536 20.5995C66.732 21.0871 66.2807 21.4813 65.6998 21.7821C65.1188 22.083 64.3926 22.2334 63.5212 22.2334ZM61.4515 16.3357H65.3418C65.3003 15.6303 65.124 15.0856 64.8128 14.7018C64.5015 14.3076 64.0555 14.1105 63.4745 14.1105C62.9039 14.1105 62.4423 14.2972 62.0896 14.6707C61.7472 15.0338 61.5345 15.5888 61.4515 16.3357ZM69.4262 22V12.6633H71.7604V14.0638H72.1338C72.3206 13.5969 72.6059 13.2079 72.9897 12.8967C73.3839 12.5855 73.9597 12.4299 74.717 12.4299C75.7544 12.4299 76.5325 12.7566 77.0512 13.4102C77.5699 14.0638 77.8292 14.9508 77.8292 16.0712V22H75.3083V16.4913C75.3083 15.8481 75.1942 15.3554 74.966 15.013C74.7377 14.6603 74.3643 14.4839 73.8456 14.4839C73.2439 14.4839 72.777 14.7225 72.4451 15.1997C72.1131 15.6666 71.9471 16.2527 71.9471 16.9582V22H69.4262ZM81.3723 22C81.1337 21.7199 80.9418 21.3827 80.7966 20.9885C80.6617 20.5943 80.5943 20.003 80.5943 19.2145V14.4372H79.3183V12.6633H80.6254V10.3291H83.0996V12.6633H84.6091V14.4372H83.0996V18.95C83.0996 19.7696 83.193 20.3972 83.3797 20.8329C83.5665 21.2686 83.7895 21.6265 84.0489 21.9066V22H81.3723ZM86.9839 22C86.6934 21.668 86.4859 21.2946 86.3614 20.8796C86.2473 20.4543 86.1902 19.8992 86.1902 19.2145V9.55102H88.7112V18.95C88.7112 19.7384 88.7993 20.3557 88.9757 20.8018C89.1521 21.2375 89.3855 21.6058 89.6759 21.9066V22H86.9839ZM91.6843 25.1122V25.0811C91.9437 24.6558 92.2238 24.163 92.5246 23.6028C92.8255 23.0426 93.09 22.5083 93.3182 22L90.1126 12.7566V12.6633H92.6024L93.5672 15.4643C93.7228 15.9104 93.8785 16.3876 94.0341 16.8959C94.1897 17.4043 94.3453 18.0475 94.5009 18.8255H94.8744C95.03 18.0475 95.1856 17.4043 95.3412 16.8959C95.4968 16.3876 95.6524 15.9104 95.808 15.4643L96.7728 12.6633H99.1381V12.7566L96.2749 20.724C95.9014 21.7718 95.5383 22.6639 95.1856 23.4005C94.8432 24.1474 94.5528 24.718 94.3142 25.1122H91.6843ZM100.549 22.0934C100.062 22.0934 99.6883 21.9585 99.4289 21.6888C99.1696 21.4087 99.0399 21.0456 99.0399 20.5995C99.0399 20.143 99.1696 19.7799 99.4289 19.5102C99.6883 19.2405 100.062 19.1056 100.549 19.1056C101.037 19.1056 101.405 19.2405 101.654 19.5102C101.903 19.7799 102.028 20.143 102.028 20.5995C102.028 21.0456 101.903 21.4087 101.654 21.6888C101.405 21.9585 101.037 22.0934 100.549 22.0934ZM107.194 22.1867C106.323 22.1867 105.607 21.9793 105.047 21.5643C104.486 21.1389 104.071 20.558 103.802 19.8214C103.532 19.0849 103.397 18.2497 103.397 17.3161C103.397 16.3513 103.532 15.5058 103.802 14.7796C104.082 14.0534 104.502 13.488 105.062 13.0834C105.622 12.6788 106.328 12.4765 107.178 12.4765C107.832 12.4765 108.366 12.6062 108.781 12.8656C109.207 13.1145 109.528 13.4517 109.746 13.877H110.12V12.6633H112.454V22H110.12V20.7862H109.746C109.528 21.1804 109.212 21.5124 108.797 21.7821C108.382 22.0519 107.848 22.1867 107.194 22.1867ZM107.848 20.4128C108.48 20.4128 108.984 20.1378 109.357 19.588C109.741 19.0278 109.933 18.2757 109.933 17.3316C109.933 16.3772 109.741 15.6251 109.357 15.0753C108.984 14.5254 108.48 14.2505 107.848 14.2505C107.277 14.2505 106.826 14.5099 106.494 15.0286C106.172 15.5369 106.011 16.3046 106.011 17.3316C106.011 18.3587 106.172 19.1315 106.494 19.6503C106.826 20.1586 107.277 20.4128 107.848 20.4128ZM114.76 22V12.6633H117.281V22H114.76ZM116.021 11.5895C115.575 11.5895 115.238 11.4754 115.009 11.2472C114.781 11.0086 114.667 10.7026 114.667 10.3291C114.667 9.95562 114.781 9.65477 115.009 9.42653C115.238 9.18793 115.575 9.06863 116.021 9.06863C116.467 9.06863 116.804 9.18793 117.032 9.42653C117.261 9.65477 117.375 9.95562 117.375 10.3291C117.375 10.7026 117.261 11.0086 117.032 11.2472C116.804 11.4754 116.467 11.5895 116.021 11.5895Z" fill="#B8B8BC"/>
</svg>
